<svg width="107" height="79" viewBox="0 0 107 79" fill="none" xmlns="http://www.w3.org/2000/svg">
<path fill-rule="evenodd" clip-rule="evenodd" d="M26.16 61.56H78C79.1929 61.56 80.16 60.593 80.16 59.4V28.44C80.16 27.2471 79.1929 26.28 78 26.28H67.92C67.048 26.28 66.2615 25.7557 65.9262 24.9508L63.4338 18.9692C63.0985 18.1643 62.312 17.64 61.44 17.64H44.055C43.2368 17.64 42.4889 18.1023 42.123 18.834L38.997 25.086C38.6311 25.8178 37.8832 26.28 37.065 26.28H26.16C24.9671 26.28 24 27.2471 24 28.44V59.4C24 60.593 24.9671 61.56 26.16 61.56Z" stroke="#C9B47A" stroke-width="3" stroke-linejoin="round"/>
<path d="M52.71 54.54C59.4203 54.54 64.86 49.1003 64.86 42.39C64.86 35.6797 59.4203 30.24 52.71 30.24C45.9997 30.24 40.56 35.6797 40.56 42.39C40.56 49.1003 45.9997 54.54 52.71 54.54Z" stroke="#C9B47A" stroke-width="3"/>
<path d="M92.04 0V29.52M76.92 14.4H106.44" stroke="#C9B47A" stroke-width="3"/>
</svg>
