<svg width="64" height="64" viewBox="0 0 64 64" fill="none" xmlns="http://www.w3.org/2000/svg">
<path d="M62.4337 24.3684H58.9747C58.4141 22.3887 57.613 20.4828 56.5931 18.6918L59.0513 16.2336H59.054C59.3274 15.9575 59.4806 15.5856 59.4806 15.1945C59.4778 14.8063 59.322 14.4344 59.0431 14.1609L50.0551 5.33743C49.4836 4.77688 48.5676 4.78235 48.0016 5.34837L45.5461 7.80383C43.8125 6.78666 41.9613 5.98817 40.0309 5.42768V1.96597C40.0309 1.57769 39.8777 1.20857 39.6043 0.935079C39.3309 0.661638 38.959 0.505783 38.5734 0.505783H25.8257C25.4374 0.505783 25.0683 0.661645 24.7948 0.935079C24.5214 1.20851 24.3655 1.57766 24.3655 1.96597V5.42768C22.4378 5.98823 20.5866 6.78666 18.853 7.80383L16.3976 5.34837C15.8315 4.78236 14.9155 4.77688 14.344 5.33743L5.35604 14.1609C5.07713 14.4344 4.92128 14.8062 4.91854 15.1945C4.9158 15.5856 5.07167 15.9574 5.34511 16.2336L7.8033 18.6918C6.78613 20.4828 5.98491 22.3887 5.42442 24.3684H1.96544C1.57715 24.3684 1.20804 24.5215 0.934545 24.795C0.661104 25.0684 0.505249 25.4403 0.505249 25.8259V38.5736C0.505249 38.9591 0.661111 39.331 0.934545 39.6044C1.20798 39.8779 1.57712 40.031 1.96544 40.031H5.42442C5.96583 41.9697 6.75876 43.8318 7.78146 45.5654L5.34511 48.0017C5.07167 48.2751 4.91854 48.647 4.91854 49.0326C4.91854 49.4209 5.07167 49.79 5.34511 50.0635L14.3359 59.0515C14.6093 59.3249 14.9785 59.4808 15.3668 59.4808C15.7523 59.4808 16.1242 59.3249 16.3977 59.0515L18.8914 56.5605C20.6332 57.4956 22.468 58.2503 24.3656 58.8108V62.4366V62.4339C24.3656 62.8222 24.5215 63.1913 24.7949 63.4648C25.0684 63.7382 25.4375 63.8941 25.8258 63.8941H38.5735C38.9591 63.8941 39.3309 63.7382 39.6044 63.4648C39.8779 63.1913 40.031 62.8222 40.031 62.4339V58.8108C41.9286 58.2503 43.7634 57.4956 45.5079 56.5605L48.0017 59.0515C48.2751 59.3249 48.647 59.4808 49.0326 59.4808C49.4209 59.4808 49.79 59.3249 50.0635 59.0515L59.0543 50.0635C59.3277 49.79 59.4808 49.4209 59.4808 49.0326C59.4808 48.647 59.3277 48.2752 59.0543 48.0017L56.6152 45.5653C57.6405 43.8317 58.4336 41.9724 58.9749 40.031H62.4339C62.8222 40.031 63.1913 39.8779 63.4648 39.6044C63.7383 39.331 63.8941 38.9591 63.8941 38.5735V25.8258C63.8941 25.4403 63.7383 25.0684 63.4648 24.795C63.1914 24.5215 62.8222 24.3684 62.4339 24.3684L62.4337 24.3684ZM60.9763 37.1133H57.8591C57.1892 37.1133 56.604 37.5699 56.4427 38.2207C55.8958 40.616 54.9169 42.891 53.5525 44.9336C53.1533 45.5132 53.2244 46.298 53.722 46.7957L55.9587 49.0324L49.0326 55.9586L46.7959 53.7218C46.331 53.257 45.6119 53.1613 45.0404 53.4867C42.9103 54.7335 40.6135 55.6742 38.2209 56.2812C37.5701 56.4426 37.1162 57.025 37.1162 57.6949V60.9761H27.2833V57.6949C27.2833 57.025 26.8294 56.4425 26.1786 56.2812C23.786 55.6742 21.4892 54.7336 19.3564 53.4867C18.7849 53.1613 18.0685 53.257 17.6036 53.7218L15.3669 55.9586L8.44077 49.0324L10.6775 46.7957C11.1751 46.298 11.2462 45.5133 10.8443 44.9336C9.48257 42.891 8.50362 40.616 7.95678 38.2207C7.79271 37.5699 7.2103 37.1133 6.5404 37.1133H3.42323V27.286H6.5404C7.21032 27.286 7.79277 26.8294 7.95678 26.1786C8.5392 23.7286 9.52359 21.3907 10.8716 19.2606C11.2435 18.6837 11.1615 17.9263 10.6775 17.4422L8.44899 15.211L15.356 8.43248L17.6037 10.6774C18.0876 11.1641 18.845 11.2461 19.4221 10.8743C21.4947 9.52892 23.7779 8.54185 26.1787 7.95665C26.8267 7.79532 27.2833 7.2129 27.2833 6.543V3.4231H37.1162V6.543C37.1162 7.21292 37.5701 7.79537 38.2209 7.95665C40.619 8.54181 42.9049 9.52892 44.9748 10.8743C45.5517 11.2461 46.3119 11.1641 46.7959 10.6774L49.0435 8.42975L55.9506 15.211L53.722 17.4395V17.4423C53.2353 17.9262 53.156 18.6836 53.5252 19.2606C54.876 21.3907 55.8603 23.7286 56.4428 26.1786C56.6041 26.8294 57.1893 27.286 57.8592 27.286H60.9763V37.1133Z" fill="#E8CB7B"/>
<path d="M32 45.75C39.5939 45.75 45.75 39.5939 45.75 32C45.75 24.4061 39.5939 18.25 32 18.25C24.4061 18.25 18.25 24.4061 18.25 32C18.25 39.5939 24.4061 45.75 32 45.75Z" stroke="#F5D47B" stroke-width="3"/>
</svg>
