<svg width="42" height="30" viewBox="0 0 42 30" fill="none" xmlns="http://www.w3.org/2000/svg">
<path d="M27.3845 1.99484C27.9734 1.99484 28.5624 2.06331 29.1513 2.23449L38.2061 4.69949C38.3533 4.73373 38.4637 4.87068 38.5005 5.00762L39.4575 14.8676C39.4944 15.1758 39.4575 15.4839 39.3103 15.7578L38.0957 18.2912C38.0588 18.3597 37.9852 18.4282 37.9116 18.4624L22.4154 24.9673C22.2682 25.0358 22.0842 25.0015 21.9737 24.8988L17.0047 20.4481C16.5262 20.0373 15.9004 19.7976 15.2379 19.7976H2.13422V8.08887C2.13422 7.91769 2.24465 7.78075 2.42869 7.71227L25.8386 2.16602C26.3539 2.06331 26.8692 1.99484 27.3845 1.99484ZM22.2314 27.0557C22.5995 27.0557 22.9307 26.9872 23.2988 26.8503L38.795 20.3454C39.3471 20.1058 39.8256 19.6949 40.0833 19.1471L41.2979 16.6137C41.5924 16.0317 41.7028 15.3469 41.6292 14.6964L40.5986 4.8022C40.4882 3.84359 39.7888 3.05616 38.795 2.78227L29.7402 0.317269C28.3047 -0.093565 26.7588 -0.093565 25.2865 0.248796L1.91338 5.82929C0.772327 6.10318 -0.000640869 7.02755 -0.000640869 8.12311V21.8518H15.2379C15.3483 21.8518 15.4219 21.886 15.5323 21.9545L20.4646 26.371C20.9799 26.816 21.6057 27.0557 22.2314 27.0557Z" fill="#2A2A2A"/>
<path d="M-0.000648499 20.8247H2.13422V26.5079H-0.000648499V20.8247Z" fill="#2A2A2A"/>
<path d="M34.5989 2.78223H35.2982V20.8589H34.5989V2.78223Z" fill="#2A2A2A"/>
<path d="M39.5312 26.508H41.666V23.5637C41.666 22.5366 40.9667 21.6464 39.936 21.3383L35.2982 19.9004L34.6357 21.7834L39.2367 23.2213C39.3839 23.2555 39.4943 23.4267 39.4943 23.5637V26.508H39.5312Z" fill="#2A2A2A"/>
<path d="M32.0223 27.6719C32.0223 28.9387 33.1265 30 34.5253 30C35.8872 30 37.0282 28.9729 37.0282 27.6719C37.0282 26.4052 35.924 25.3439 34.5253 25.3439C33.1265 25.3439 32.0223 26.4052 32.0223 27.6719Z" fill="#2A2A2A"/>
<path d="M11.5939 27.6719C11.5939 28.9387 12.6981 30 14.0968 30C15.4587 30 16.5998 28.9729 16.5998 27.6719C16.5998 26.4052 15.4956 25.3439 14.0968 25.3439C12.6981 25.3439 11.5939 26.4052 11.5939 27.6719Z" fill="#2A2A2A"/>
<path d="M5.1893 27.6719C5.1893 28.9387 6.29354 30 7.69224 30C9.05414 30 10.1952 28.9729 10.1952 27.6719C10.1952 26.4052 9.09095 25.3439 7.69224 25.3439C6.29354 25.3439 5.1893 26.4052 5.1893 27.6719Z" fill="#2A2A2A"/>
</svg>
