<svg width="47" height="23" viewBox="0 0 47 23" fill="none" xmlns="http://www.w3.org/2000/svg">
<path fill-rule="evenodd" clip-rule="evenodd" d="M1.46873 13.2989H35.2502V5.17178V2.9553C35.2502 2.14038 34.5915 1.47765 33.7815 1.47765H2.93745C2.12745 1.47765 1.46873 2.14038 1.46873 2.9553V13.2989ZM1.46873 18.4706H3.03072C3.05642 18.3702 3.09607 18.2756 3.13206 18.1788C3.14895 18.1323 3.16143 18.0828 3.18126 18.037C3.25176 17.8737 3.33474 17.7185 3.43242 17.5722C3.45371 17.5397 3.48088 17.5124 3.50365 17.4806C3.58369 17.3691 3.66888 17.2619 3.76361 17.1629C3.80694 17.1186 3.85394 17.0794 3.89947 17.0373C3.98392 16.9597 4.06984 16.8859 4.16311 16.8186C4.21745 16.7787 4.27253 16.7425 4.32981 16.7063C4.42454 16.6472 4.52295 16.594 4.62429 16.546C4.68524 16.5172 4.74472 16.4884 4.80714 16.4633C4.9195 16.4189 5.03553 16.3849 5.1545 16.3546C5.21178 16.3399 5.26612 16.3214 5.32413 16.3103C5.50332 16.2756 5.68618 16.2542 5.87491 16.2542C6.06364 16.2542 6.24649 16.2756 6.42568 16.3103C6.4837 16.3214 6.53804 16.3399 6.59532 16.3546C6.71428 16.3849 6.83031 16.4189 6.94267 16.4633C7.00509 16.4884 7.06458 16.5172 7.12553 16.546C7.22687 16.594 7.32528 16.6472 7.42001 16.7063C7.47729 16.7425 7.53236 16.7787 7.58671 16.8186C7.67997 16.8859 7.76589 16.9597 7.85035 17.0373C7.89587 17.0794 7.94287 17.1186 7.9862 17.1629C8.08094 17.2619 8.16612 17.3691 8.24617 17.4806C8.26893 17.5124 8.2961 17.5397 8.3174 17.5722C8.41507 17.7185 8.49805 17.8737 8.56855 18.037C8.58838 18.0828 8.60086 18.1323 8.61776 18.1788C8.65374 18.2756 8.69339 18.3702 8.71909 18.4706H10.0277H10.0285C10.146 18.0126 10.3699 17.601 10.6725 17.2575C10.6887 17.239 10.7019 17.2198 10.7188 17.2021C10.7944 17.1193 10.8781 17.0462 10.9626 16.9738C11.0132 16.9295 11.0639 16.8851 11.1183 16.8438C11.1932 16.7883 11.271 16.7366 11.3503 16.6879C11.4274 16.6406 11.506 16.5985 11.5868 16.5593C11.6595 16.5238 11.7307 16.4891 11.8056 16.4596C11.9099 16.4189 12.0186 16.3879 12.1287 16.3591C12.1904 16.3428 12.2499 16.3221 12.3138 16.3103C12.4915 16.2756 12.6736 16.2542 12.8616 16.2542C13.0496 16.2542 13.2318 16.2756 13.4095 16.3103C13.4734 16.3221 13.5329 16.3428 13.5945 16.3591C13.7047 16.3879 13.8134 16.4189 13.9169 16.4596C13.9926 16.4891 14.0638 16.5238 14.1358 16.5593C14.2165 16.5985 14.2959 16.6406 14.3722 16.6879C14.4523 16.7366 14.5294 16.7883 14.605 16.8438C14.6586 16.8851 14.7093 16.9295 14.7607 16.9738C14.8452 17.0462 14.9281 17.1193 15.0045 17.2021C15.0207 17.2198 15.0346 17.239 15.05 17.2575C15.3526 17.601 15.5766 18.0126 15.6948 18.4706H35.2502V14.7765H1.46873V18.4706ZM5.87491 20.6871C6.68491 20.6871 7.34364 20.0244 7.34364 19.2095C7.34364 18.3945 6.68491 17.7318 5.87491 17.7318C5.0649 17.7318 4.40618 18.3945 4.40618 19.2095C4.40618 20.0244 5.0649 20.6871 5.87491 20.6871ZM11.4443 19.5781C11.4487 19.5944 11.4553 19.6107 11.4597 19.6276C11.4943 19.7399 11.5391 19.8486 11.5971 19.9483C11.8519 20.3879 12.3204 20.6871 12.8616 20.6871C13.4029 20.6871 13.8714 20.3879 14.1255 19.9483C14.1835 19.8486 14.2283 19.7399 14.2628 19.6276C14.2679 19.6107 14.2738 19.5944 14.2782 19.5781C14.3098 19.4599 14.3304 19.3373 14.3304 19.2095C14.3304 19.0817 14.3098 18.959 14.2782 18.8415C14.2738 18.8245 14.2679 18.8083 14.2628 18.7913C14.2283 18.679 14.1835 18.5704 14.1255 18.4706C14.0014 18.2564 13.8259 18.0783 13.6166 17.949C13.6011 17.9394 13.5843 17.9313 13.5681 17.9224C13.4836 17.8744 13.3941 17.8375 13.3015 17.8072C13.2736 17.7983 13.2464 17.788 13.2171 17.7806C13.1032 17.7518 12.985 17.7318 12.8616 17.7318C12.7383 17.7318 12.62 17.7518 12.5055 17.7806C12.4768 17.788 12.4489 17.7983 12.421 17.8072C12.3285 17.8375 12.2389 17.8744 12.1552 17.9224C12.1383 17.9313 12.1221 17.9394 12.106 17.949C11.8974 18.0783 11.7212 18.2564 11.5971 18.4706C11.5391 18.5704 11.4943 18.679 11.4597 18.7913C11.4553 18.8083 11.4487 18.8245 11.4443 18.8415C11.4127 18.959 11.3929 19.0817 11.3929 19.2095C11.3929 19.3373 11.4127 19.4599 11.4443 19.5781ZM36.7189 13.2989V14.7765V18.4706H38.2809C38.3066 18.3702 38.347 18.2756 38.383 18.1788C38.3999 18.1323 38.4124 18.0828 38.4314 18.037C38.5019 17.8737 38.5857 17.7185 38.6826 17.5722C38.7039 17.5397 38.7311 17.5124 38.7538 17.4806C38.8346 17.3691 38.9198 17.2619 39.0138 17.1629C39.0571 17.1186 39.1041 17.0794 39.1504 17.0373C39.2341 16.9597 39.3208 16.8859 39.4133 16.8186C39.4676 16.7787 39.5234 16.7425 39.5807 16.7063C39.6755 16.6472 39.7731 16.594 39.8752 16.546C39.9354 16.5172 39.9949 16.4884 40.0573 16.4633C40.1697 16.4189 40.2864 16.3849 40.4054 16.3546C40.462 16.3399 40.517 16.3214 40.5751 16.3103C40.7535 16.2756 40.9371 16.2542 41.1251 16.2542C41.3138 16.2542 41.4974 16.2756 41.6759 16.3103C41.7346 16.3214 41.789 16.3399 41.8455 16.3546C41.9645 16.3849 42.0812 16.4189 42.1936 16.4633C42.256 16.4884 42.3155 16.5172 42.3757 16.546C42.4771 16.594 42.5755 16.6472 42.6702 16.7063C42.7275 16.7425 42.7833 16.7787 42.8376 16.8186C42.9302 16.8859 43.0168 16.9597 43.1005 17.0373C43.1468 17.0794 43.1938 17.1186 43.2364 17.1629C43.3311 17.2619 43.4163 17.3691 43.4964 17.4806C43.5199 17.5124 43.547 17.5397 43.5683 17.5722C43.6653 17.7185 43.749 17.8737 43.8187 18.037C43.8393 18.0828 43.851 18.1323 43.8687 18.1788C43.9047 18.2756 43.9436 18.3702 43.97 18.4706H45.5313V9.91061L42.2898 6.64943H36.7189V13.2989ZM41.1251 20.6871C41.9351 20.6871 42.5938 20.0244 42.5938 19.2095C42.5938 18.3945 41.9351 17.7318 41.1251 17.7318C40.3158 17.7318 39.6564 18.3945 39.6564 19.2095C39.6564 20.0244 40.3158 20.6871 41.1251 20.6871ZM2.93745 0H33.7815C35.4022 0 36.7189 1.32545 36.7189 2.9553V5.17178H42.8986L47 9.29886V19.9483H43.9583C43.6307 21.2198 42.4903 22.1648 41.1251 22.1648C39.7606 22.1648 38.6209 21.2198 38.2927 19.9483H36.7189H35.2502H15.6948C15.3666 21.2198 14.2261 22.1648 12.8616 22.1648C11.4965 22.1648 10.3567 21.2198 10.0277 19.9483H8.70808C8.37982 21.2198 7.23935 22.1648 5.87491 22.1648C4.51046 22.1648 3.36999 21.2198 3.04173 19.9483H0V14.7765V13.2989V2.9553C0 1.32545 1.31745 0 2.93745 0Z" fill="#2A2A2A"/>
<path d="M9.77148 2.44238L6.10742 7.32779H9.77148L6.63086 12.2132" stroke="#2A2A2A" stroke-width="1.47989"/>
</svg>
