<svg width="50" height="52" viewBox="0 0 50 52" fill="none" xmlns="http://www.w3.org/2000/svg">
<path fill-rule="evenodd" clip-rule="evenodd" d="M18.9571 0.795044C19.8375 0.804935 20.7181 0.868887 21.5887 1.00416C23.2071 1.2501 24.7885 1.71986 26.2814 2.39375C28.1014 3.21768 29.7813 4.34661 31.2348 5.71649C32.713 7.10854 33.955 8.74904 34.8921 10.5494C35.6939 12.0915 36.2719 13.7516 36.599 15.4586C36.9679 17.377 37.022 19.3544 36.7613 21.29C36.5154 23.1346 35.9816 24.9374 35.1848 26.6172C34.4798 28.1006 33.5726 29.4844 32.4975 30.7231L48.8078 47.0313C48.8964 47.1273 48.9824 47.2207 49.0562 47.3289C49.2062 47.538 49.3218 47.7741 49.3956 48.0201C49.5801 48.6423 49.4965 49.3285 49.162 49.8868C49.0538 50.0737 48.916 50.241 48.7611 50.391C48.5717 50.5681 48.3553 50.7132 48.1216 50.8214C47.8462 50.9444 47.5486 51.0182 47.2461 51.028C46.946 51.0403 46.6435 50.996 46.3582 50.8927C46.1171 50.8067 45.8884 50.6788 45.6867 50.5164C45.5982 50.4451 45.5785 50.423 45.4949 50.3443L28.9895 33.8418C28.0109 34.507 26.9676 35.0764 25.8781 35.5378C23.6916 36.4626 21.328 36.9447 18.9572 36.9622C16.5789 36.9766 14.2055 36.5216 12.0067 35.6214C9.91862 34.7704 7.99774 33.5211 6.36467 31.9666C4.81522 30.4885 3.53134 28.7373 2.58935 26.8165C1.77278 25.1465 1.21695 23.3535 0.948852 21.5162C0.670927 19.62 0.693065 17.6794 1.02018 15.793C1.3104 14.1107 1.8392 12.4727 2.58934 10.9405C3.49934 9.08356 4.72907 7.38652 6.20971 5.94033C7.66327 4.5212 9.35786 3.34802 11.1976 2.48719C12.6807 1.79604 14.2547 1.30663 15.8657 1.03853C16.7339 0.895885 17.6095 0.817182 18.49 0.797506L18.7227 0.795352L18.9571 0.795044ZM18.7529 5.48043C18.0987 5.48781 17.4445 5.53454 16.7976 5.63537C15.6023 5.81737 14.4316 6.16416 13.3297 6.66343C11.9795 7.27339 10.735 8.10963 9.65774 9.12541C8.58051 10.1387 7.67051 11.3316 6.98182 12.64C6.394 13.7517 5.96604 14.947 5.71274 16.1768C5.41022 17.6525 5.36103 19.1773 5.56025 20.6702C5.73979 22.0057 6.12101 23.3142 6.69163 24.5365C7.37534 25.9999 8.32722 27.3354 9.4807 28.4644C10.6784 29.6302 12.0877 30.5722 13.6274 31.2239C15.2457 31.9101 16.9944 32.2642 18.7529 32.2768C20.514 32.2864 22.27 31.9519 23.9007 31.2854C25.4477 30.6533 26.8718 29.7285 28.0818 28.575C29.2501 27.4609 30.2166 26.1377 30.9176 24.6817C31.5005 23.4691 31.9014 22.1681 32.0957 20.8375C32.3146 19.347 32.2801 17.8197 31.9973 16.3415C31.7563 15.0774 31.3283 13.8525 30.7356 12.7113C30.0519 11.398 29.1517 10.2026 28.0818 9.18195C27.0291 8.17845 25.8141 7.34715 24.4959 6.72986C23.4039 6.22075 22.2381 5.85921 21.0477 5.65999C20.4033 5.55423 19.7515 5.49767 19.0997 5.48291C18.9841 5.48043 18.8685 5.48043 18.7529 5.48043Z" fill="#C9B47A"/>
</svg>
