<svg width="58" height="66" viewBox="0 0 58 66" fill="none" xmlns="http://www.w3.org/2000/svg">
<path fill-rule="evenodd" clip-rule="evenodd" d="M57.269 49.9532L57.2597 49.9377C57.1261 49.7576 55.7817 47.935 54.164 44.7834C51.5124 39.6074 48.1403 30.8603 48.1403 19.8569C48.1435 9.44 39.7011 1 29.2867 1H29.2308C18.8163 1 10.3771 9.43921 10.3739 19.8569C10.3739 30.8643 7.00498 39.6111 4.35025 44.7834C3.48709 46.4632 2.70461 47.7673 2.13954 48.646C1.85698 49.0838 1.63032 49.4161 1.47507 49.6365C1.39744 49.7452 1.33844 49.829 1.29808 49.8818L1.25461 49.9377L1.24529 49.9532L1 50.2731V50.6767C1 51.0648 1.10247 51.4467 1.26703 51.7728C1.58063 52.3875 2.06811 52.8346 2.64257 53.2321C3.65476 53.9183 5.0148 54.4648 6.71321 54.9647C9.25928 55.7068 12.5661 56.2998 16.4099 56.7159C17.7327 56.8587 19.1206 56.9798 20.555 57.076C20.968 61.5224 24.7033 65 29.2581 65C33.813 65 37.5487 61.5193 37.9613 57.0729C42.0039 56.7966 45.6461 56.3371 48.6333 55.7316C51.1421 55.2193 53.1914 54.6169 54.7128 53.8903C55.4735 53.5208 56.1069 53.1265 56.613 52.6297C56.8645 52.3813 57.085 52.0988 57.2496 51.7728C57.4141 51.4467 57.5166 51.0679 57.5166 50.6767L57.5135 50.2731L57.269 49.9532ZM12.759 19.8568C12.759 15.3049 14.6003 11.1942 17.5842 8.21027C20.5681 5.22631 24.6791 3.38823 29.2307 3.38513H29.2866C33.8385 3.38513 37.9492 5.22638 40.9331 8.21027C43.9171 11.1942 45.7552 15.3052 45.7583 19.8568C45.7614 30.5225 48.7794 39.123 51.4311 44.6315C49.3414 45.2681 46.5159 45.8301 43.1906 46.2399C39.1448 46.7398 34.369 47.0317 29.2588 47.0317C24.1485 47.0317 19.3721 46.7398 15.3302 46.2399C12.0047 45.83 9.17916 45.268 7.08966 44.6315C9.73819 39.1202 12.7594 30.5193 12.7594 19.8568H12.759ZM33.7549 60.7524C32.5999 61.9044 31.0194 62.6155 29.2589 62.6155C27.4984 62.6155 25.918 61.9044 24.763 60.7524C23.8252 59.8116 23.1887 58.5851 22.9807 57.2159C24.9989 57.3121 27.0979 57.3649 29.2589 57.3649C31.4231 57.3649 33.519 57.309 35.5372 57.2128C35.3323 58.5852 34.6957 59.8116 33.7549 60.7524V60.7524ZM54.2635 51.4309C53.5059 51.8842 52.2701 52.3686 50.6897 52.8003C45.9328 54.1043 38.0837 54.9831 29.259 54.98C21.8536 54.98 15.1436 54.3683 10.3592 53.3933C7.97149 52.912 6.05878 52.3283 4.83856 51.7415C4.22999 51.4527 3.80149 51.1546 3.58417 50.9373C3.55622 50.9125 3.54381 50.8907 3.52207 50.8659C4.00645 50.1704 4.9131 48.7855 5.98746 46.7859C8.33171 47.5405 11.4088 48.1522 15.0324 48.6024C19.19 49.1178 24.0558 49.4128 29.2567 49.4128C34.4607 49.4128 39.323 49.1178 43.481 48.6024C47.1045 48.1522 50.1816 47.5405 52.5259 46.7859C53.6003 48.7855 54.5069 50.1704 54.9913 50.8659C54.8671 51.0118 54.628 51.2167 54.2647 51.431L54.2635 51.4309Z" fill="#5F6674" stroke="#5F6675" stroke-width="0.5"/>
</svg>
