<svg width="51" height="51" viewBox="0 0 51 51" fill="none" xmlns="http://www.w3.org/2000/svg">
<path fill-rule="evenodd" clip-rule="evenodd" d="M25.4188 0.97998C36.0091 0.97998 44.7156 9.19029 45.5178 19.5793H48.9117C49.7765 19.5793 50.4742 20.2796 50.4742 21.1471V48.552C50.4742 49.4143 49.774 50.1172 48.9091 50.1172H1.92555C1.06331 50.1172 0.360413 49.4169 0.360413 48.552V21.1444C0.360413 20.2822 1.06064 19.5793 1.92555 19.5793H5.31978C6.12181 9.18962 14.8285 0.97998 25.4188 0.97998ZM47.3441 22.7098H3.49309V46.9869H47.3415L47.3441 22.7098ZM25.4189 30.8599C26.2838 30.8599 26.9841 31.5628 26.9841 32.4251V40.9825C26.9841 41.8448 26.2838 42.5477 25.4189 42.5477C24.5567 42.5477 23.8538 41.8475 23.8538 40.9825V32.4251C23.8538 31.5628 24.554 30.8599 25.4189 30.8599ZM25.4194 4.11298L25.0838 4.11646C16.3726 4.28582 9.24544 11.0297 8.46115 19.5793H42.3773C41.5827 10.9201 34.2821 4.1132 25.4189 4.1132L25.4194 4.11298Z" fill="#C9B47A"/>
</svg>
