<?xml version="1.0" encoding="UTF-8"?>
<svg width="122px" height="101px" viewBox="0 0 122 101" version="1.1" xmlns="http://www.w3.org/2000/svg" xmlns:xlink="http://www.w3.org/1999/xlink">
    <title>Group 24</title>
    <g id="Page-1" stroke="none" stroke-width="1" fill="none" fill-rule="evenodd">
        <g id="Artboard" transform="translate(-81.000000, -452.000000)">
            <g id="Group-24" transform="translate(85.000000, 452.800000)">
                <path d="M57.0116679,4.87965224e-11 C57.269188,4.87965224e-11 57.4929915,0.180880954 57.5481733,0.429210641 L57.5481733,0.429210641 L63.0665061,30.4860419 L79.8941563,21.436108 C80.1056929,21.3226679 80.3693505,21.359461 80.5410332,21.5311436 C80.7127158,21.7028263 80.7525698,21.966476 80.6360688,22.1810813 L80.6360688,22.1810813 L72.7698665,36.79 L64.840118,39.2309219 C59.8379411,40.447306 57.2773029,41.0699789 57.1582035,41.0989404 C57.1538462,41.1 54.4851675,40.476974 49.1478103,39.2309219 C49.1511847,39.1577297 46.5552475,38.413456 41.3599988,36.9981009 L33.353519,22.1373582 C33.2462163,21.9227528 33.2891389,21.6652249 33.4577529,21.4966109 C33.6263747,21.3279969 33.8869636,21.2912117 34.0954315,21.4015752 L34.0954315,21.4015752 L50.9230817,30.4703452 L56.4782233,0.429210641 C56.533405,0.180880954 56.7572086,4.87965224e-11 57.0116679,4.87965224e-11 Z" id="Combined-Shape" fill="#DDE4EF"></path>
                <g id="Group-6" transform="translate(0.000000, 34.970191)">
                    <g id="Group-11" transform="translate(27.216629, 30.871043) rotate(14.000000) translate(-27.216629, -30.871043) translate(5.716629, 5.371043)">
                        <g id="Group-14" transform="translate(0.075185, 0.057359)">
                            <path d="M20.8683465,49.8365595 L20.3988212,49.8358248 C7.86802641,49.7986287 4.59132023,48.3510452 2.50893434,45.9591155 C1.10241055,44.3435138 0.266099097,38.812454 -1.45519152e-11,29.3659361 L-1.45519152e-11,29.3659361 L-1.45519152e-11,2.87957237 C-1.45519152e-11,1.13092116 6.96609422,0.171063705 20.8982827,1.8189894e-12 L20.8683465,1.8189894e-12 L20.8683465,1.8189894e-12 L20.8982827,1.8189894e-12 L20.8982827,1.8189894e-12 L20.8683465,1.8189894e-12 C34.800535,0.171063705 41.7666292,1.13092116 41.7666292,2.87957237 L41.7666292,29.3659361 L41.7666292,29.3659361 C41.5005301,38.812454 40.6642186,44.3435138 39.2576948,45.9591155 C37.1753089,48.3510452 33.8986028,49.7986287 21.367808,49.8358248 L20.8982827,49.8365595 L20.8982827,49.8365595 L20.8683465,49.8365595 L20.8683465,49.8365595 Z" id="Combined-Shape" stroke="#DDE4EF" stroke-width="5"></path>
                            <path d="M11.5571966,49.3716447 L4.48498188,45.6768362 L2.73679396,42.4710465 L2.44940246,30.5607226 C2.58082442,33.2995609 2.86335984,35.156021 3.29700872,36.1301031 C4.23501604,38.2370983 6.12671703,39.4871382 7.74296845,40.1074558 C11.8452915,41.681928 14.1228736,42.4697911 20.9175851,42.471045 C27.713023,42.4697911 29.990605,41.681928 34.0929281,40.1074558 C35.64679,39.5110833 37.442594,38.1005929 38.3667178,36.1301031 C38.8358386,35.1298068 39.1713494,33.2733466 39.3732502,30.5607226 L39.3732502,30.5607226 L39.0991026,42.4710465 L37.3509147,45.6768362 L30.2786999,49.3716447 L11.5571966,49.3716447 Z" id="Combined-Shape" fill="#DDE4EF"></path>
                            <path d="M21.3692115,39.3892255 C21.1815955,39.3892255 20.9954963,39.3880405 20.8109299,39.3856946 C20.6270571,39.3880372 20.4406986,39.3892255 20.2528191,39.3892255 L20.2516108,39.3749351 C13.3575314,39.1968542 8.70050131,37.3778561 7.16281223,35.2380359 C6.08322403,33.7357006 5.55978733,31.2647545 5.59250212,27.8251974 C5.58862426,25.9107198 5.58568833,24.3053245 5.58369433,23.0090116 L5.5828409,22.43266 C5.58244762,22.1554575 5.58210451,21.8947151 5.58181156,21.6504326 L5.580829,19.4020077 C5.58223344,18.3953317 6.14138602,17.7235388 6.57775696,17.6753336 C9.06887794,17.4001437 13.4985362,17.171037 19.8667317,16.9880136 C19.8663004,16.9770849 19.8661268,16.9670224 19.8659532,16.9569566 C20.1718522,16.9588792 20.4737378,16.9609873 20.7716102,16.963281 L20.9823456,16.9569566 C20.9823861,16.9593053 20.9824266,16.9616538 20.9824671,16.9640021 C28.0601792,17.0218942 32.8427602,17.1849339 35.3304823,17.4540623 C35.8169007,17.5066844 36.0399844,18.42003 36.0412994,19.4761026 L36.040939,21.0391151 C36.0408724,21.1091559 36.0408004,21.1809908 36.0407229,21.2546196 L36.0398783,21.9657185 C36.0380049,23.4004012 36.0345549,25.3535608 36.0295285,27.8251974 C36.0622433,31.2647545 35.5388066,33.7357006 34.4592184,35.2380359 C32.92149,37.3779108 28.2642611,39.1969472 21.3698911,39.3749488 L21.3689597,39.3746231 Z" id="Combined-Shape" fill="#DDE4EF"></path>
                        </g>
                    </g>
                </g>
                <g id="Group-6" transform="translate(86.300000, 65.470191) scale(-1, 1) translate(-86.300000, -65.470191) translate(58.800000, 34.970191)">
                    <g id="Group-11" transform="translate(27.216629, 30.871043) rotate(14.000000) translate(-27.216629, -30.871043) translate(5.716629, 5.371043)">
                        <g id="Group-14" transform="translate(0.075185, 0.057359)">
                            <path d="M20.8683465,49.8365595 L20.3988212,49.8358248 C7.86802641,49.7986287 4.59132023,48.3510452 2.50893434,45.9591155 C1.10241055,44.3435138 0.266099097,38.812454 -1.45519152e-11,29.3659361 L-1.45519152e-11,29.3659361 L-1.45519152e-11,2.87957237 C-1.45519152e-11,1.13092116 6.96609422,0.171063705 20.8982827,1.8189894e-12 L20.8683465,1.8189894e-12 L20.8683465,1.8189894e-12 L20.8982827,1.8189894e-12 L20.8982827,1.8189894e-12 L20.8683465,1.8189894e-12 C34.800535,0.171063705 41.7666292,1.13092116 41.7666292,2.87957237 L41.7666292,29.3659361 L41.7666292,29.3659361 C41.5005301,38.812454 40.6642186,44.3435138 39.2576948,45.9591155 C37.1753089,48.3510452 33.8986028,49.7986287 21.367808,49.8358248 L20.8982827,49.8365595 L20.8982827,49.8365595 L20.8683465,49.8365595 L20.8683465,49.8365595 Z" id="Combined-Shape" stroke="#DDE4EF" stroke-width="5"></path>
                            <path d="M11.5571966,49.3716447 L4.48498188,45.6768362 L2.73679396,42.4710465 L2.44940246,30.5607226 C2.58082442,33.2995609 2.86335984,35.156021 3.29700872,36.1301031 C4.23501604,38.2370983 6.12671703,39.4871382 7.74296845,40.1074558 C11.8452915,41.681928 14.1228736,42.4697911 20.9175851,42.471045 C27.713023,42.4697911 29.990605,41.681928 34.0929281,40.1074558 C35.64679,39.5110833 37.442594,38.1005929 38.3667178,36.1301031 C38.8358386,35.1298068 39.1713494,33.2733466 39.3732502,30.5607226 L39.3732502,30.5607226 L39.0991026,42.4710465 L37.3509147,45.6768362 L30.2786999,49.3716447 L11.5571966,49.3716447 Z" id="Combined-Shape" fill="#DDE4EF"></path>
                            <path d="M21.3692115,39.3892255 C21.1815955,39.3892255 20.9954963,39.3880405 20.8109299,39.3856946 C20.6270571,39.3880372 20.4406986,39.3892255 20.2528191,39.3892255 L20.2516108,39.3749351 C13.3575314,39.1968542 8.70050131,37.3778561 7.16281223,35.2380359 C6.08322403,33.7357006 5.55978733,31.2647545 5.59250212,27.8251974 C5.58862426,25.9107198 5.58568833,24.3053245 5.58369433,23.0090116 L5.5828409,22.43266 C5.58244762,22.1554575 5.58210451,21.8947151 5.58181156,21.6504326 L5.580829,19.4020077 C5.58223344,18.3953317 6.14138602,17.7235388 6.57775696,17.6753336 C9.06887794,17.4001437 13.4985362,17.171037 19.8667317,16.9880136 C19.8663004,16.9770849 19.8661268,16.9670224 19.8659532,16.9569566 C20.1718522,16.9588792 20.4737378,16.9609873 20.7716102,16.963281 L20.9823456,16.9569566 C20.9823861,16.9593053 20.9824266,16.9616538 20.9824671,16.9640021 C28.0601792,17.0218942 32.8427602,17.1849339 35.3304823,17.4540623 C35.8169007,17.5066844 36.0399844,18.42003 36.0412994,19.4761026 L36.040939,21.0391151 C36.0408724,21.1091559 36.0408004,21.1809908 36.0407229,21.2546196 L36.0398783,21.9657185 C36.0380049,23.4004012 36.0345549,25.3535608 36.0295285,27.8251974 C36.0622433,31.2647545 35.5388066,33.7357006 34.4592184,35.2380359 C32.92149,37.3779108 28.2642611,39.1969472 21.3698911,39.3749488 L21.3689597,39.3746231 Z" id="Combined-Shape" fill="#DDE4EF"></path>
                        </g>
                    </g>
                </g>
            </g>
        </g>
    </g>
</svg>