<svg width="125" height="125" viewBox="0 0 125 125" fill="none" xmlns="http://www.w3.org/2000/svg">
<path fill-rule="evenodd" clip-rule="evenodd" d="M63.0117 3.8C63.2692 3.8 63.493 3.98088 63.5482 4.22921L69.0665 34.286L85.8942 25.2361C86.1057 25.1227 86.3694 25.1595 86.541 25.3311C86.7127 25.5028 86.7526 25.7665 86.6361 25.9811L78.7699 40.59L70.8401 43.0309C65.8379 44.2473 63.2773 44.87 63.1582 44.8989C63.1538 44.9 60.4852 44.277 55.1478 43.0309C55.1512 42.9577 52.5553 42.2135 47.36 40.7981L39.3535 25.9374C39.2462 25.7228 39.2891 25.4652 39.4578 25.2966C39.6264 25.128 39.887 25.0912 40.0954 25.2016L56.9231 34.2703L62.4782 4.22921C62.5334 3.98088 62.7572 3.8 63.0117 3.8Z" fill="#F5D47B"/>
<path fill-rule="evenodd" clip-rule="evenodd" d="M26.7753 93.1759L26.3199 93.0616C14.1703 89.9941 11.3411 87.7968 9.89925 84.9721C8.92536 83.0642 9.45197 77.4952 11.4791 68.2649L17.8867 42.5653C18.3098 40.8685 25.3011 41.6225 38.8609 44.827L38.8318 44.8197L38.8609 44.827L38.8318 44.8197C52.3088 48.3562 58.8357 50.9728 58.4127 52.6695L52.0051 78.3691C49.4616 87.4707 47.312 92.6351 45.5564 93.8624C42.9572 95.6796 39.4276 96.2914 27.2601 93.296L26.8043 93.1832L26.7753 93.1759Z" stroke="#F4B16B" stroke-width="5"/>
<path fill-rule="evenodd" clip-rule="evenodd" d="M17.8532 90.4723L11.8849 85.1763L10.9642 81.6428L13.5667 70.0167C13.0316 72.706 12.8567 74.5757 13.0418 75.6257C13.4422 77.8971 14.9753 79.5676 16.3935 80.5605C19.993 83.0807 22.0124 84.3961 28.6049 86.0411C35.1988 87.6839 37.5993 87.4704 41.9607 86.9351C43.6127 86.7324 45.6964 85.7982 47.0698 84.1099C47.7669 83.2528 48.5416 81.5326 49.3937 78.9494L46.2464 90.4396L43.7746 93.1273L36.0186 95.0014L17.8532 90.4723Z" fill="#F4B16B"/>
<path fill-rule="evenodd" clip-rule="evenodd" d="M29.7887 83.1601C29.6067 83.1147 29.4264 83.0685 29.2479 83.0216C29.0689 82.9794 28.8878 82.9355 28.7055 82.89L28.7078 82.8759C22.0615 81.0352 17.9829 78.1436 17.0086 75.6954C16.3245 73.9765 16.4144 71.4523 17.2782 68.1228C17.7376 66.2643 18.1231 64.7059 18.4348 63.4476L18.5734 62.8881C18.6401 62.6191 18.7028 62.366 18.7617 62.1289L19.3046 59.947C19.5495 58.9706 20.2546 58.454 20.6897 58.5128C23.1734 58.8485 27.5269 59.6978 33.7502 61.0608C33.7524 61.0501 33.7547 61.0403 33.757 61.0305C34.0533 61.1064 34.3457 61.1814 34.6342 61.2557L34.8402 61.3006C34.8397 61.3029 34.8391 61.3051 34.8386 61.3074C41.6921 63.0759 46.2931 64.3911 48.6419 65.254C49.1011 65.4228 49.0966 66.363 48.8424 67.388L48.4639 68.9045C48.4469 68.9724 48.4294 69.0421 48.4116 69.1135L48.2387 69.8033C47.8898 71.1949 47.414 73.0892 46.8111 75.4862C46.0108 78.8315 44.9051 81.1024 43.4941 82.299C41.4844 84.0033 36.5255 84.6416 29.7928 83.1464L29.792 83.1459L29.7887 83.1601Z" fill="#F4B16B"/>
<path fill-rule="evenodd" clip-rule="evenodd" d="M99.0247 93.1759L99.4801 93.0616C111.63 89.9941 114.459 87.7968 115.901 84.9721C116.875 83.0642 116.348 77.4952 114.321 68.2649L107.913 42.5653C107.49 40.8685 100.499 41.6225 86.9391 44.827L86.9682 44.8197L86.9391 44.827L86.9682 44.8197C73.4912 48.3562 66.9643 50.9728 67.3873 52.6695L73.7949 78.3691C76.3384 87.4707 78.488 92.6351 80.2436 93.8624C82.8428 95.6796 86.3724 96.2914 98.5399 93.296L98.9957 93.1832L99.0247 93.1759Z" stroke="#F4B16B" stroke-width="5"/>
<path fill-rule="evenodd" clip-rule="evenodd" d="M107.947 90.4723L113.915 85.1763L114.836 81.6428L112.233 70.0167C112.768 72.706 112.943 74.5757 112.758 75.6257C112.358 77.8971 110.825 79.5676 109.407 80.5605C105.807 83.0807 103.788 84.3961 97.1951 86.0411C90.6012 87.6839 88.2007 87.4704 83.8393 86.9351C82.1873 86.7324 80.1036 85.7982 78.7302 84.1099C78.0331 83.2528 77.2584 81.5326 76.4063 78.9494L79.5536 90.4396L82.0254 93.1273L89.7814 95.0014L107.947 90.4723Z" fill="#F4B16B"/>
<path fill-rule="evenodd" clip-rule="evenodd" d="M96.0113 83.1601C96.1934 83.1147 96.3736 83.0685 96.5522 83.0216C96.7311 82.9794 96.9122 82.9355 97.0945 82.89L97.0923 82.8759C103.738 81.0352 107.817 78.1436 108.791 75.6954C109.476 73.9765 109.386 71.4523 108.522 68.1228C108.062 66.2643 107.677 64.7059 107.365 63.4476L107.227 62.8881C107.16 62.6191 107.097 62.366 107.038 62.1289L106.495 59.947C106.25 58.9706 105.545 58.454 105.11 58.5128C102.627 58.8485 98.2731 59.6978 92.0498 61.0608C92.0476 61.0501 92.0453 61.0403 92.0431 61.0305C91.7467 61.1064 91.4543 61.1814 91.1658 61.2557L90.9598 61.3006C90.9604 61.3029 90.9609 61.3051 90.9614 61.3074C84.1079 63.0759 79.5069 64.3911 77.1581 65.254C76.6989 65.4228 76.7034 66.363 76.9576 67.388L77.3361 68.9045C77.3531 68.9724 77.3706 69.0421 77.3884 69.1135L77.5613 69.8033C77.9102 71.1949 78.3861 73.0892 78.9889 75.4862C79.7892 78.8315 80.8949 81.1024 82.3059 82.299C84.3156 84.0033 89.2746 84.6416 96.0072 83.1464L96.008 83.1459L96.0113 83.1601Z" fill="#F4B16B"/>
</svg>
