<svg width="125" height="125" viewBox="0 0 125 125" fill="none" xmlns="http://www.w3.org/2000/svg">
<path fill-rule="evenodd" clip-rule="evenodd" d="M62.4183 25.7902C84.8942 25.7902 103.114 44.0104 103.114 66.4863C103.114 88.9622 84.8942 107.182 62.4183 107.182C39.9425 107.182 21.7222 88.9622 21.7222 66.4863C21.7222 52.2918 28.9893 39.7947 40.0059 32.5124C39.8155 33.1966 39.7138 33.9174 39.7138 34.6619C39.7138 39.0801 43.2955 42.6619 47.7138 42.6619C52.1321 42.6619 55.7138 39.0801 55.7138 34.6619C55.7138 31.4406 53.8099 28.6639 51.066 27.3959C54.6684 26.3502 58.4779 25.7902 62.4183 25.7902ZM80.5798 73.2343H44.082L43.9232 73.2394C42.5585 73.327 41.5165 74.5348 41.6612 75.9136C42.0182 79.3219 43.2655 82.6689 45.7736 85.431C49.2243 89.2314 54.6376 91.3849 62.3309 91.3849C70.0244 91.3849 75.4377 89.2321 78.8882 85.4326C81.3966 82.6706 82.6439 79.3233 83.0006 75.9135C83.1507 74.4781 82.0248 73.2343 80.5798 73.2343ZM64.0229 82.9709C65.2563 82.7049 66.9178 82.7474 69.0672 83.2226L69.3736 83.2978C70.8882 83.7056 72.124 84.5886 73.1097 85.8365L73.143 85.8809L72.9181 85.9835C70.0665 87.244 66.5594 87.9172 62.3305 87.9172L61.7583 87.9131C57.784 87.8548 54.4647 87.1867 51.7427 85.9835L51.518 85.8809L51.5531 85.8353C52.6095 84.4999 53.9411 83.5863 55.5932 83.2227C57.743 82.7474 59.4046 82.7049 60.638 82.9708C61.0651 83.0629 61.4084 83.186 61.6761 83.3254C61.7402 83.3588 61.7946 83.3901 61.8402 83.4186L61.9506 83.4952L61.987 83.526L62.3304 83.8506L62.6738 83.526L62.7146 83.4912C62.7277 83.481 62.7431 83.4698 62.7609 83.4575L62.8958 83.3738L62.9848 83.3254C63.2525 83.1861 63.5958 83.063 64.0229 82.9709ZM52.4426 60.1962H41.5156C40.6521 60.1962 39.9536 60.8947 39.9536 61.7582C39.9536 62.6217 40.6521 63.3202 41.5156 63.3202H42.7055C43.3444 65.0647 45.0117 66.3108 46.9773 66.3108C48.943 66.3108 50.6138 65.0647 51.2491 63.3202H52.439C53.3025 63.3202 54.0011 62.6217 54.0011 61.7582C54.0046 60.8947 53.3061 60.1962 52.4426 60.1962ZM83.1455 60.1962H72.2186C71.3551 60.1962 70.6566 60.8947 70.6566 61.7582C70.6566 62.6217 71.3551 63.3202 72.2186 63.3202H73.4085C74.0473 65.0647 75.7146 66.3108 77.6803 66.3108C79.646 66.3108 81.3168 65.0647 81.9521 63.3202H83.142C84.0055 63.3202 84.704 62.6217 84.704 61.7582C84.7075 60.8947 84.009 60.1962 83.1455 60.1962Z" fill="#DDE4EF"/>
<path d="M62.9449 17.0759C66.0587 17.0759 68.5829 14.5517 68.5829 11.4379C68.5829 8.32414 66.0587 5.79993 62.9449 5.79993C59.8311 5.79993 57.3069 8.32414 57.3069 11.4379C57.3069 14.5517 59.8311 17.0759 62.9449 17.0759Z" stroke="#DDE4EF" stroke-width="4"/>
<path d="M97.8394 32.4492L102.033 36.6433M88.7051 23.3149L84.511 19.1208L88.7051 23.3149ZM97.8394 23.3149L102.033 19.1208L97.8394 23.3149ZM88.7051 32.4492L84.511 36.6433L88.7051 32.4492Z" stroke="#DDE4EF" stroke-width="4" stroke-linecap="round"/>
<path d="M24.9117 16.2136H18.9803" stroke="#DDE4EF" stroke-width="4" stroke-linecap="round"/>
<path d="M29.8192 11.3198L29.8192 5.38843" stroke="#DDE4EF" stroke-width="4" stroke-linecap="round"/>
<path d="M29.8192 21.4613L29.8192 27.3926" stroke="#DDE4EF" stroke-width="4" stroke-linecap="round"/>
<path d="M35.0976 16.2136L41.0289 16.2136" stroke="#DDE4EF" stroke-width="4" stroke-linecap="round"/>
<path d="M47.7139 42.142C51.845 42.142 55.194 38.793 55.194 34.6619C55.194 30.5307 51.845 27.1818 47.7139 27.1818C43.5827 27.1818 40.2338 30.5307 40.2338 34.6619C40.2338 38.793 43.5827 42.142 47.7139 42.142Z" stroke="#DDE4EF" stroke-width="4"/>
</svg>
