<svg width="125" height="125" viewBox="0 0 125 125" fill="none" xmlns="http://www.w3.org/2000/svg">
<path d="M63.1046 99.2C85.7482 99.2 104.105 80.8437 104.105 58.2C104.105 35.5563 85.7482 17.2 63.1046 17.2C40.4609 17.2 22.1046 35.5563 22.1046 58.2C22.1046 80.8437 40.4609 99.2 63.1046 99.2Z" fill="#F5D47B"/>
<path d="M49.8786 53.1522C49.8786 52.3321 49.5889 51.6412 49.0094 51.0795C48.4389 50.5179 47.4716 50.0098 46.1076 49.5551C44.2088 48.9757 42.8226 48.2224 41.9489 47.2952C41.0842 46.3592 40.6518 45.1735 40.6518 43.7382C40.6518 42.2762 41.0753 41.0772 41.9222 40.1411C42.778 39.2051 43.9503 38.6479 45.439 38.4696V35.5411H47.4315V38.483C48.9292 38.688 50.0925 39.3165 50.9216 40.3685C51.7596 41.4204 52.1786 42.8601 52.1786 44.6877H49.7181C49.7181 43.4307 49.4195 42.4322 48.8222 41.6923C48.2249 40.9524 47.4181 40.5824 46.4018 40.5824C45.341 40.5824 44.5297 40.8588 43.9681 41.4115C43.4065 41.9553 43.1257 42.7175 43.1257 43.6981C43.1257 44.6074 43.4199 45.334 44.0082 45.8778C44.6055 46.4127 45.5817 46.903 46.9367 47.3487C48.3007 47.7855 49.3615 48.2714 50.1193 48.8063C50.886 49.3322 51.4476 49.9474 51.8042 50.6516C52.1697 51.3559 52.3524 52.1805 52.3524 53.1255C52.3524 54.6321 51.8978 55.8445 50.9885 56.7627C50.0881 57.6809 48.8222 58.2247 47.1908 58.3941V60.9482H45.2117V58.3941C43.5536 58.2425 42.252 57.6542 41.3071 56.629C40.371 55.5949 39.903 54.1952 39.903 52.4301H42.3768C42.3768 53.6693 42.7022 54.6231 43.353 55.2917C44.0038 55.9604 44.9264 56.2947 46.121 56.2947C47.2889 56.2947 48.2071 56.0138 48.8757 55.4522C49.5443 54.8906 49.8786 54.1239 49.8786 53.1522Z" fill="#5B6271"/>
<path d="M83.2236 53.1522C83.2236 52.3321 82.9339 51.6412 82.3544 51.0795C81.7839 50.5179 80.8166 50.0098 79.4526 49.5551C77.5538 48.9757 76.1676 48.2224 75.2939 47.2952C74.4292 46.3592 73.9968 45.1735 73.9968 43.7382C73.9968 42.2762 74.4203 41.0772 75.2672 40.1411C76.123 39.2051 77.2953 38.6479 78.784 38.4696V35.5411H80.7765V38.483C82.2742 38.688 83.4375 39.3165 84.2666 40.3685C85.1046 41.4204 85.5236 42.8601 85.5236 44.6877H83.0631C83.0631 43.4307 82.7645 42.4322 82.1672 41.6923C81.5699 40.9524 80.7631 40.5824 79.7468 40.5824C78.686 40.5824 77.8747 40.8588 77.3131 41.4115C76.7515 41.9553 76.4707 42.7175 76.4707 43.6981C76.4707 44.6074 76.7649 45.334 77.3532 45.8778C77.9505 46.4127 78.9267 46.903 80.2817 47.3487C81.6457 47.7855 82.7065 48.2714 83.4643 48.8063C84.231 49.3322 84.7926 49.9474 85.1492 50.6516C85.5147 51.3559 85.6974 52.1805 85.6974 53.1255C85.6974 54.6321 85.2428 55.8445 84.3335 56.7627C83.4331 57.6809 82.1672 58.2247 80.5358 58.3941V60.9482H78.5567V58.3941C76.8986 58.2425 75.597 57.6542 74.6521 56.629C73.716 55.5949 73.248 54.1952 73.248 52.4301H75.7218C75.7218 53.6693 76.0472 54.6231 76.698 55.2917C77.3488 55.9604 78.2714 56.2947 79.466 56.2947C80.6339 56.2947 81.5521 56.0138 82.2207 55.4522C82.8893 54.8906 83.2236 54.1239 83.2236 53.1522Z" fill="#5B6271"/>
<mask id="mask0" mask-type="alpha" maskUnits="userSpaceOnUse" x="49" y="63" width="29" height="22">
<path d="M63.6046 84.3529C71.1985 84.3529 77.3546 79.7638 77.3546 74.1029C77.3546 68.4419 71.1985 63.8529 63.6046 63.8529C56.0106 63.8529 49.8546 68.4419 49.8546 74.1029C49.8546 79.7638 56.0106 84.3529 63.6046 84.3529Z" fill="white"/>
</mask>
<g mask="url(#mask0)">
<path d="M63.6046 84.3529C71.1985 84.3529 77.3546 79.7638 77.3546 74.1029C77.3546 68.4419 71.1985 63.8529 63.6046 63.8529C56.0106 63.8529 49.8546 68.4419 49.8546 74.1029C49.8546 79.7638 56.0106 84.3529 63.6046 84.3529Z" fill="#5B6271"/>
</g>
<mask id="mask1" mask-type="alpha" maskUnits="userSpaceOnUse" x="49" y="63" width="29" height="22">
<path d="M63.6046 84.3529C71.1985 84.3529 77.3546 79.7638 77.3546 74.1029C77.3546 68.4419 71.1985 63.8529 63.6046 63.8529C56.0106 63.8529 49.8546 68.4419 49.8546 74.1029C49.8546 79.7638 56.0106 84.3529 63.6046 84.3529Z" fill="white"/>
</mask>
<g mask="url(#mask1)">
<path d="M63.6046 82.8529C70.37 82.8529 75.8546 78.9353 75.8546 74.1029C75.8546 69.2704 70.37 65.3529 63.6046 65.3529C56.8391 65.3529 51.3546 69.2704 51.3546 74.1029C51.3546 78.9353 56.8391 82.8529 63.6046 82.8529Z" stroke="#5B6271" stroke-width="3"/>
</g>
<path fill-rule="evenodd" clip-rule="evenodd" d="M63.6266 66.8423C68.932 66.8423 73.3204 69.2426 74.0447 72.3639H53.2084C53.9328 69.2426 58.3212 66.8423 63.6266 66.8423Z" fill="white"/>
</svg>
