<?xml version="1.0" encoding="UTF-8"?>
<svg width="125px" height="125px" viewBox="0 0 125 125" version="1.1" xmlns="http://www.w3.org/2000/svg" xmlns:xlink="http://www.w3.org/1999/xlink">
    <title>Artboard</title>
    <defs>
        <circle id="path-1" cx="40.6961489" cy="40.6961489" r="40.6961489"></circle>
    </defs>
    <g id="Artboard" stroke="none" stroke-width="1" fill="none" fill-rule="evenodd">
        <g id="Group-32" transform="translate(16.789647, 3.800000)">
            <g id="Group-30">
                <g id="Group-5" transform="translate(4.820205, 21.611040)">
                    <g id="Oval" transform="translate(0.112323, 0.379204)">
                        <mask id="mask-2" fill="white">
                            <use xlink:href="#path-1"></use>
                        </mask>
                        <use id="Mask" fill="#F5D47B" xlink:href="#path-1"></use>
                        <ellipse fill="#EA7884" mask="url(#mask-2)" cx="40.7734275" cy="56.3792041" rx="13.928113" ry="6.2478819"></ellipse>
                    </g>
                    <g id="Group-28" transform="translate(18.343774, 34.785237)" fill="#5B6271">
                        <path d="M12.4888447,-1.42552636e-13 L1.5620154,-1.42552636e-13 C0.698526316,-1.42552636e-13 2.61657362e-12,0.698508344 2.61657362e-12,1.5620154 C2.61657362e-12,2.42552246 0.698508344,3.12403081 1.5620154,3.12403081 L2.75192555,3.12403081 C3.39076765,4.86854942 5.05806162,6.11462131 7.02372272,6.11462131 C8.98938383,6.11462131 10.6602182,4.86854942 11.2955199,3.12403081 L12.48543,3.12403081 C13.3489191,3.12403081 14.0474586,2.42552246 14.0474586,1.5620154 C14.0509499,0.698526316 13.3524416,-1.42552636e-13 12.4889345,-1.42552636e-13 L12.4888447,-1.42552636e-13 Z" id="Fill-2" stroke="#F5D47B"></path>
                        <path d="M43.1917972,-1.42552636e-13 L32.2649679,-1.42552636e-13 C31.4014788,-1.42552636e-13 30.7029525,0.698508344 30.7029525,1.5620154 C30.7029525,2.42552246 31.4014608,3.12403081 32.2649679,3.12403081 L33.454878,3.12403081 C34.0937202,4.86854942 35.7610141,6.11462131 37.7266752,6.11462131 C39.6923363,6.11462131 41.3631707,4.86854942 41.9984724,3.12403081 L43.1883825,3.12403081 C44.0518716,3.12403081 44.7504111,2.42552246 44.7504111,1.5620154 C44.7539114,0.698526316 44.0553941,-1.42552636e-13 43.191887,-1.42552636e-13 L43.1917972,-1.42552636e-13 Z" id="Fill-3" stroke="#F5D47B"></path>
                        <path d="M40.6263286,13.5381258 L4.12838254,13.5381258 C2.98412067,13.5381258 2.08553273,14.5280103 2.20486521,15.6652632 C2.68575353,20.2565083 5.62722721,30.6887548 22.3772657,30.6887548 C39.1273042,30.6887548 42.0689217,20.2606418 42.5496662,15.6652632 C42.6690077,14.5245058 41.7739332,13.5381258 40.6261489,13.5381258 L40.6263286,13.5381258 Z M22.3769063,28.2210526 C17.3960334,28.2210526 13.6402054,27.2944288 10.8039923,25.8762773 C11.7973813,24.4300899 13.2996406,23.0295507 15.5320924,22.5382028 C20.7867651,21.3763286 22.3768164,22.9664339 22.3768164,22.9664339 C22.3768164,22.9664339 23.9668678,21.3763825 29.2215404,22.5382028 C31.4539923,23.0331271 32.959846,24.4301797 33.9496406,25.8762773 C31.1135173,27.2943389 27.3576893,28.2210526 22.3767266,28.2210526 L22.3769063,28.2210526 Z" id="Fill-4" stroke="#5B6271"></path>
                    </g>
                </g>
                <circle id="Oval" stroke="#F5D47B" stroke-width="4" fill="#FFFFFF" cx="46.1552498" cy="7.63799743" r="5.63799743"></circle>
                <g id="Group-29" transform="translate(67.272066, 14.871630)" stroke="#F5D47B" stroke-linecap="round" stroke-width="4">
                    <line x1="4.64337485" y1="4.64337485" x2="0.449293967" y2="0.449293967" id="Line-5"></line>
                    <line x1="17.6728999" y1="4.64337485" x2="13.478819" y2="0.449293967" id="Line-5" transform="translate(15.725289, 2.695764) scale(-1, 1) translate(-15.725289, -2.695764) "></line>
                    <line x1="4.64337485" y1="17.6728999" x2="0.449293967" y2="13.478819" id="Line-5" transform="translate(2.695764, 15.725289) scale(1, -1) translate(-2.695764, -15.725289) "></line>
                    <line x1="17.6728999" y1="17.6728999" x2="13.478819" y2="13.478819" id="Line-5" transform="translate(15.725289, 15.725289) scale(-1, -1) translate(-15.725289, -15.725289) "></line>
                </g>
                <g id="Group-29" transform="translate(13.013640, 12.426108) rotate(-45.000000) translate(-13.013640, -12.426108) translate(4.513640, 3.426108)" stroke="#F5D47B" stroke-linecap="round" stroke-width="4">
                    <line x1="5.04991849" y1="5.53229381" x2="0.855837616" y2="1.33821293" id="Line-5"></line>
                    <line x1="15.875724" y1="5.54196278" x2="11.6816431" y2="1.3478819" id="Line-5" transform="translate(13.928113, 3.594352) scale(-1, 1) translate(-13.928113, -3.594352) "></line>
                    <line x1="4.80940285" y1="16.6082839" x2="0.615321976" y2="12.4142031" id="Line-5" transform="translate(2.861792, 14.660673) scale(1, -1) translate(-2.861792, -14.660673) "></line>
                    <line x1="16.1476638" y1="16.6300391" x2="11.9535829" y2="12.4359582" id="Line-5" transform="translate(14.200053, 14.682428) scale(-1, -1) translate(-14.200053, -14.682428) "></line>
                </g>
            </g>
            <circle id="Oval" stroke="#F5D47B" stroke-width="4" fill="#FFFFFF" cx="30.9241844" cy="30.861935" r="7.48010274"></circle>
        </g>
    </g>
</svg>