<?xml version="1.0" encoding="UTF-8"?>
<svg width="86px" height="88px" viewBox="0 0 86 88" version="1.1" xmlns="http://www.w3.org/2000/svg" xmlns:xlink="http://www.w3.org/1999/xlink">
    <title>Group 27</title>
    <g id="Page-1" stroke="none" stroke-width="1" fill="none" fill-rule="evenodd">
        <g id="Artboard" transform="translate(-255.000000, -457.000000)" fill="#DDE4EF">
            <g id="Group-27" transform="translate(255.000000, 457.300000)">
                <g id="Group-3" transform="translate(17.000000, 0.000000)">
                    <path d="M61.1545243,33.9849026 L37.808126,33.9791045 C36.5649322,33.9791045 32.2049904,32.1254907 35.6311211,26.8716078 C37.808126,22.8574217 37.808126,7.71562135 37.808126,7.71562135 C37.808126,3.39432857 34.3819954,-9.01041685e-06 30.0279855,-9.01041685e-06 C25.6679989,-9.01041685e-06 22.2420177,3.39447686 22.2420177,7.72140462 C22.2420177,30.2717286 0.454038158,37.0722669 0.454038158,37.0722669 L0.454038158,77.231922 C10.4171603,80.6321912 12.9034584,86.499991 25.3588552,86.499991 L48.7052535,86.499991 C53.0652401,86.499991 56.4853941,83.0997218 56.4853941,78.7785774 C56.4853941,76.9249636 55.860876,75.3783082 54.9269753,74.1445429 C59.2869619,74.1445429 62.7071158,70.7442737 62.7071158,66.4231292 C62.7071158,64.5695154 62.0825978,62.7159016 60.839404,61.1692463 C63.9502648,59.9354365 65.8179767,57.1550602 65.8179767,54.0617495 C65.8179767,52.2081357 65.1934587,50.354522 63.9502648,48.8078666 C66.7576599,47.8810597 68.9346648,45.100639 68.9346648,41.7061531 C68.9346648,37.3792402 65.5085342,33.9849026 61.1545243,33.9849026 Z" id="Fill-1"></path>
                </g>
                <rect id="Rectangle" x="0" y="37.2499224" width="13" height="44.7385426"></rect>
            </g>
        </g>
    </g>
</svg>