<?xml version="1.0" encoding="UTF-8"?>
<svg width="85px" height="83px" viewBox="0 0 85 83" version="1.1" xmlns="http://www.w3.org/2000/svg" xmlns:xlink="http://www.w3.org/1999/xlink">
    <title>Group 17</title>
    <defs>
        <ellipse id="path-1" cx="13.75" cy="10.25" rx="13.75" ry="10.25"></ellipse>
        <rect id="path-3" x="-3.63620245e-12" y="0" width="26.55" height="7"></rect>
    </defs>
    <g id="Page-1" stroke="none" stroke-width="1" fill="none" fill-rule="evenodd">
        <g id="Artboard" transform="translate(-1589.000000, -462.000000)">
            <g id="Group-17" transform="translate(1589.507692, 462.300000)">
                <g id="Group-33" transform="translate(0.253846, 0.000000)">
                    <g id="Group-35" transform="translate(0.350692, 0.000000)">
                        <ellipse id="Oval" fill="#5B6271" cx="42.75904" cy="42.6114579" rx="31.8712706" ry="28.4639346"></ellipse>
                        <path d="M41,4.90274488e-13 C63.6436747,4.90274488e-13 82,18.3563253 82,41 C82,63.6436747 63.6436747,82 41,82 C18.3563253,82 0,63.6436747 0,41 C0,18.3563253 18.3563253,4.90274488e-13 41,4.90274488e-13 Z M41.5,46.6528589 C33.9060847,46.6528589 27.75,51.2419402 27.75,56.9028589 C27.75,62.5637776 33.9060847,67.1528589 41.5,67.1528589 C49.0939153,67.1528589 55.25,62.5637776 55.25,56.9028589 C55.25,51.2419402 49.0939153,46.6528589 41.5,46.6528589 Z M25.8618209,20.8208381 L23.735654,20.8208381 L23.735654,23.6423553 C22.8976679,23.722588 22.1354571,23.907569 21.4490216,24.1972982 C20.7625862,24.4870275 20.1742129,24.8659042 19.6839019,25.3339283 C19.1935909,25.8019525 18.8147142,26.3524381 18.5472718,26.9853851 C18.2798294,27.618332 18.1461082,28.3136822 18.1461082,29.0714356 C18.1461082,29.9807397 18.2932015,30.7563227 18.5873881,31.3981844 C18.8815748,32.0400461 19.2961104,32.5972177 19.8309952,33.0696993 C20.36588,33.5421808 21.0032843,33.9611739 21.7432083,34.3266785 C22.4831322,34.6921831 23.2943741,35.0532303 24.1769339,35.4098201 C24.595927,35.588115 24.9525168,35.76641 25.2467035,35.9447049 C25.5408901,36.1229998 25.7793595,36.3168955 25.9621118,36.5263921 C26.1448641,36.7358886 26.2785853,36.9743581 26.3632754,37.2418004 C26.4479655,37.5092428 26.4903105,37.8257163 26.4903105,38.1912209 C26.4903105,38.4764928 26.4524229,38.7417065 26.3766475,38.986862 C26.3008722,39.2320175 26.1827518,39.4459714 26.0222864,39.6287237 C25.8618209,39.811476 25.6590105,39.9563406 25.413855,40.0633176 C25.1686994,40.1702945 24.8767415,40.223783 24.5379812,40.223783 C24.1992208,40.223783 23.8738326,40.1725232 23.5618165,40.0700036 C23.2498003,39.9674841 22.9734432,39.7958752 22.7327451,39.555177 C22.4920469,39.3144789 22.3003799,38.9957767 22.1577439,38.5990705 C22.0354846,38.2590366 21.9656221,37.8453196 21.9481564,37.3579196 L21.94379,37.1080792 L17.4373859,37.1080792 C17.4373859,38.204593 17.6067661,39.14287 17.9455264,39.9229103 C18.2842868,40.7029506 18.7344814,41.3514984 19.2961104,41.8685537 C19.8577395,42.3856089 20.5018299,42.7778578 21.2283817,43.0453001 C21.8338415,43.2681688 22.4532306,43.4260341 23.0865491,43.518896 L23.4682116,43.5668128 L23.4682116,46.2679809 L25.5943786,46.2679809 L25.5943786,43.5801849 C26.4056205,43.4999522 27.1433157,43.3194286 27.8074643,43.0386141 C28.4716129,42.7577996 29.0399279,42.3878376 29.5124095,41.9287282 C29.984891,41.4696188 30.3503956,40.9258193 30.6089232,40.2973297 C30.8674509,39.6688401 30.9967147,38.9578891 30.9967147,38.1644767 C30.9967147,37.2640873 30.845164,36.4929618 30.5420626,35.8511 C30.2389613,35.2092383 29.8199682,34.6476093 29.2850834,34.166213 C28.7501987,33.6848167 28.115023,33.2546802 27.3795565,32.8758035 C26.6440899,32.4969268 25.8439915,32.1247362 24.9792611,31.7592316 C24.5335238,31.5631072 24.1613331,31.3692114 23.8626891,31.1775444 C23.5640451,30.9858774 23.3255757,30.7875243 23.1472808,30.5824851 C22.9689858,30.3774459 22.8441794,30.1545773 22.7728614,29.9138791 C22.7015435,29.673181 22.6658845,29.4012812 22.6658845,29.0981799 C22.6658845,28.812908 22.7015435,28.5432369 22.7728614,28.2891667 C22.8441794,28.0350964 22.953385,27.8144564 23.1004783,27.6272468 C23.2475717,27.4400371 23.4392387,27.2907151 23.6754795,27.1792808 C23.9117202,27.0678465 24.1947634,27.0121293 24.524609,27.0121293 C24.8187957,27.0121293 25.0906954,27.0656178 25.3403083,27.1725947 C25.5899212,27.2795717 25.8083325,27.4511805 25.9955421,27.6874213 C26.1827518,27.9236621 26.3276164,28.2245348 26.430136,28.5900394 C26.5121517,28.882443 26.5613611,29.2204902 26.5777642,29.6041809 L26.5839154,29.900507 L31.1036917,29.900507 C31.1036917,29.0268619 30.9788852,28.2334495 30.7292723,27.5202698 C30.4796594,26.8070901 30.1252983,26.1852866 29.6661888,25.6548592 C29.2070794,25.1244318 28.6543652,24.6942953 28.0080461,24.3644497 C27.4540583,24.0817249 26.849311,23.8775954 26.1938043,23.7520612 L25.8618209,23.6958437 L25.8618209,20.8208381 Z M59.2068209,20.8208381 L57.080654,20.8208381 L57.080654,23.6423553 C56.2426679,23.722588 55.4804571,23.907569 54.7940216,24.1972982 C54.1075862,24.4870275 53.5192129,24.8659042 53.0289019,25.3339283 C52.5385909,25.8019525 52.1597142,26.3524381 51.8922718,26.9853851 C51.6248294,27.618332 51.4911082,28.3136822 51.4911082,29.0714356 C51.4911082,29.9807397 51.6382015,30.7563227 51.9323881,31.3981844 C52.2265748,32.0400461 52.6411104,32.5972177 53.1759952,33.0696993 C53.71088,33.5421808 54.3482843,33.9611739 55.0882083,34.3266785 C55.8281322,34.6921831 56.6393741,35.0532303 57.5219339,35.4098201 C57.940927,35.588115 58.2975168,35.76641 58.5917035,35.9447049 C58.8858901,36.1229998 59.1243595,36.3168955 59.3071118,36.5263921 C59.4898641,36.7358886 59.6235853,36.9743581 59.7082754,37.2418004 C59.7929655,37.5092428 59.8353105,37.8257163 59.8353105,38.1912209 C59.8353105,38.4764928 59.7974229,38.7417065 59.7216475,38.986862 C59.6458722,39.2320175 59.5277518,39.4459714 59.3672864,39.6287237 C59.2068209,39.811476 59.0040105,39.9563406 58.758855,40.0633176 C58.5136994,40.1702945 58.2217415,40.223783 57.8829812,40.223783 C57.5442208,40.223783 57.2188326,40.1725232 56.9068165,40.0700036 C56.5948003,39.9674841 56.3184432,39.7958752 56.0777451,39.555177 C55.8370469,39.3144789 55.6453799,38.9957767 55.5027439,38.5990705 C55.3804846,38.2590366 55.3106221,37.8453196 55.2931564,37.3579196 L55.28879,37.1080792 L50.7823859,37.1080792 C50.7823859,38.204593 50.9517661,39.14287 51.2905264,39.9229103 C51.6292868,40.7029506 52.0794814,41.3514984 52.6411104,41.8685537 C53.2027395,42.3856089 53.8468299,42.7778578 54.5733817,43.0453001 C55.1788415,43.2681688 55.7982306,43.4260341 56.4315491,43.518896 L56.8132116,43.5668128 L56.8132116,46.2679809 L58.9393786,46.2679809 L58.9393786,43.5801849 C59.7506205,43.4999522 60.4883157,43.3194286 61.1524643,43.0386141 C61.8166129,42.7577996 62.3849279,42.3878376 62.8574095,41.9287282 C63.329891,41.4696188 63.6953956,40.9258193 63.9539232,40.2973297 C64.2124509,39.6688401 64.3417147,38.9578891 64.3417147,38.1644767 C64.3417147,37.2640873 64.190164,36.4929618 63.8870626,35.8511 C63.5839613,35.2092383 63.1649682,34.6476093 62.6300834,34.166213 C62.0951987,33.6848167 61.460023,33.2546802 60.7245565,32.8758035 C59.9890899,32.4969268 59.1889915,32.1247362 58.3242611,31.7592316 C57.8785238,31.5631072 57.5063331,31.3692114 57.2076891,31.1775444 C56.9090451,30.9858774 56.6705757,30.7875243 56.4922808,30.5824851 C56.3139858,30.3774459 56.1891794,30.1545773 56.1178614,29.9138791 C56.0465435,29.673181 56.0108845,29.4012812 56.0108845,29.0981799 C56.0108845,28.812908 56.0465435,28.5432369 56.1178614,28.2891667 C56.1891794,28.0350964 56.298385,27.8144564 56.4454783,27.6272468 C56.5925717,27.4400371 56.7842387,27.2907151 57.0204795,27.1792808 C57.2567202,27.0678465 57.5397634,27.0121293 57.869609,27.0121293 C58.1637957,27.0121293 58.4356954,27.0656178 58.6853083,27.1725947 C58.9349212,27.2795717 59.1533325,27.4511805 59.3405421,27.6874213 C59.5277518,27.9236621 59.6726164,28.2245348 59.775136,28.5900394 C59.8571517,28.882443 59.9063611,29.2204902 59.9227642,29.6041809 L59.9289154,29.900507 L64.4486917,29.900507 C64.4486917,29.0268619 64.3238852,28.2334495 64.0742723,27.5202698 C63.8246594,26.8070901 63.4702983,26.1852866 63.0111888,25.6548592 C62.5520794,25.1244318 61.9993652,24.6942953 61.3530461,24.3644497 C60.7990583,24.0817249 60.194311,23.8775954 59.5388043,23.7520612 L59.2068209,23.6958437 L59.2068209,20.8208381 Z" id="Combined-Shape" fill="#F5D47B"></path>
                        <g id="Group-12" transform="translate(17.327500, 20.300000)">
                            <g id="Path-2" transform="translate(10.422500, 26.352859)">
                                <mask id="mask-2" fill="white">
                                    <use xlink:href="#path-1"></use>
                                </mask>
                                <g id="Mask"></g>
                                <g id="Oval" mask="url(#mask-2)">
                                    <g transform="translate(0.950000, 1.500000)">
                                        <mask id="mask-4" fill="white">
                                            <use xlink:href="#path-3"></use>
                                        </mask>
                                        <g id="Mask" stroke="none" fill="none"></g>
                                        <ellipse id="Oval" stroke="none" fill="#FFFFFF" fill-rule="evenodd" mask="url(#mask-4)" cx="12.8" cy="8.75" rx="10.5" ry="7.25"></ellipse>
                                    </g>
                                </g>
                            </g>
                        </g>
                    </g>
                </g>
            </g>
        </g>
    </g>
</svg>