<svg width="125" height="125" viewBox="0 0 125 125" fill="none" xmlns="http://www.w3.org/2000/svg">
<path fill-rule="evenodd" clip-rule="evenodd" d="M98.4084 46.7849L75.062 46.7791C73.8188 46.7791 69.4588 44.9255 72.885 39.6716C75.062 35.6574 75.062 20.5156 75.062 20.5156C75.062 16.1943 71.6358 12.8 67.2818 12.8C62.9218 12.8 59.4959 16.1945 59.4959 20.5214C59.4959 43.0717 37.7079 49.8723 37.7079 49.8723V90.0319C47.671 93.4322 50.1573 99.3 62.6127 99.3H85.9591C90.3191 99.3 93.7392 95.8997 93.7392 91.5786C93.7392 89.725 93.1147 88.1783 92.1808 86.9445C96.5408 86.9445 99.961 83.5443 99.961 79.2231C99.961 77.3695 99.3364 75.5159 98.0933 73.9692C101.204 72.7354 103.072 69.9551 103.072 66.8618C103.072 65.0081 102.447 63.1545 101.204 61.6079C104.012 60.6811 106.189 57.9006 106.189 54.5062C106.189 50.1792 102.762 46.7849 98.4084 46.7849Z" fill="#F5D47B"/>
<path d="M33.2538 50.0499H20.2538V94.7885H33.2538V50.0499Z" fill="#EA7884"/>
</svg>
