<svg width="125" height="125" viewBox="0 0 125 125" fill="none" xmlns="http://www.w3.org/2000/svg">
<path fill-rule="evenodd" clip-rule="evenodd" d="M63 21C85.6437 21 104 39.3563 104 62C104 84.6437 85.6437 103 63 103C40.3563 103 22 84.6437 22 62C22 39.3563 40.3563 21 63 21ZM63.5 67.6529C55.9061 67.6529 49.75 72.2419 49.75 77.9029C49.75 83.5638 55.9061 88.1529 63.5 88.1529C71.0939 88.1529 77.25 83.5638 77.25 77.9029C77.25 72.2419 71.0939 67.6529 63.5 67.6529ZM47.8618 41.8208H45.7357V44.6424C44.8977 44.7226 44.1355 44.9076 43.449 45.1973C42.7626 45.487 42.1742 45.8659 41.6839 46.3339C41.1936 46.802 40.8147 47.3524 40.5473 47.9854C40.2798 48.6183 40.1461 49.3137 40.1461 50.0714C40.1461 50.9807 40.2932 51.7563 40.5874 52.3982C40.8816 53.04 41.2961 53.5972 41.831 54.0697C42.3659 54.5422 43.0033 54.9612 43.7432 55.3267C44.4831 55.6922 45.2944 56.0532 46.1769 56.4098C46.5959 56.5881 46.9525 56.7664 47.2467 56.9447C47.5409 57.123 47.7794 57.3169 47.9621 57.5264C48.1449 57.7359 48.2786 57.9744 48.3633 58.2418C48.448 58.5092 48.4903 58.8257 48.4903 59.1912C48.4903 59.4765 48.4524 59.7417 48.3766 59.9869C48.3009 60.232 48.1828 60.446 48.0223 60.6287C47.8618 60.8115 47.659 60.9563 47.4139 61.0633C47.1687 61.1703 46.8767 61.2238 46.538 61.2238C46.1992 61.2238 45.8738 61.1725 45.5618 61.07C45.2498 60.9675 44.9734 60.7959 44.7327 60.5552C44.492 60.3145 44.3004 59.9958 44.1577 59.5991C44.0355 59.259 43.9656 58.8453 43.9482 58.3579L43.9438 58.1081H39.4374C39.4374 59.2046 39.6068 60.1429 39.9455 60.9229C40.2843 61.7029 40.7345 62.3515 41.2961 62.8686C41.8577 63.3856 42.5018 63.7779 43.2284 64.0453C43.8338 64.2682 44.4532 64.426 45.0865 64.5189L45.4682 64.5668V67.268H47.5944V64.5802C48.4056 64.5 49.1433 64.3194 49.8075 64.0386C50.4716 63.7578 51.0399 63.3878 51.5124 62.9287C51.9849 62.4696 52.3504 61.9258 52.6089 61.2973C52.8675 60.6688 52.9967 59.9579 52.9967 59.1645C52.9967 58.2641 52.8452 57.493 52.5421 56.8511C52.239 56.2092 51.82 55.6476 51.2851 55.1662C50.7502 54.6848 50.115 54.2547 49.3796 53.8758C48.6441 53.4969 47.844 53.1247 46.9793 52.7592C46.5335 52.5631 46.1613 52.3692 45.8627 52.1775C45.564 51.9859 45.3256 51.7875 45.1473 51.5825C44.969 51.3774 44.8442 51.1546 44.7729 50.9139C44.7015 50.6732 44.6659 50.4013 44.6659 50.0982C44.6659 49.8129 44.7015 49.5432 44.7729 49.2892C44.8442 49.0351 44.9534 48.8145 45.1005 48.6272C45.2476 48.44 45.4392 48.2907 45.6755 48.1793C45.9117 48.0678 46.1948 48.0121 46.5246 48.0121C46.8188 48.0121 47.0907 48.0656 47.3403 48.1726C47.5899 48.2796 47.8083 48.4512 47.9955 48.6874C48.1828 48.9237 48.3276 49.2245 48.4301 49.59C48.5122 49.8824 48.5614 50.2205 48.5778 50.6042L48.5839 50.9005H53.1037C53.1037 50.0269 52.9789 49.2334 52.7293 48.5203C52.4797 47.8071 52.1253 47.1853 51.6662 46.6549C51.2071 46.1244 50.6544 45.6943 50.008 45.3645C49.4541 45.0817 48.8493 44.8776 48.1938 44.7521L47.8618 44.6958V41.8208ZM81.2068 41.8208H79.0807V44.6424C78.2427 44.7226 77.4805 44.9076 76.794 45.1973C76.1076 45.487 75.5192 45.8659 75.0289 46.3339C74.5386 46.802 74.1597 47.3524 73.8923 47.9854C73.6248 48.6183 73.4911 49.3137 73.4911 50.0714C73.4911 50.9807 73.6382 51.7563 73.9324 52.3982C74.2266 53.04 74.6411 53.5972 75.176 54.0697C75.7109 54.5422 76.3483 54.9612 77.0882 55.3267C77.8281 55.6922 78.6394 56.0532 79.5219 56.4098C79.9409 56.5881 80.2975 56.7664 80.5917 56.9447C80.8859 57.123 81.1244 57.3169 81.3071 57.5264C81.4899 57.7359 81.6236 57.9744 81.7083 58.2418C81.793 58.5092 81.8353 58.8257 81.8353 59.1912C81.8353 59.4765 81.7974 59.7417 81.7216 59.9869C81.6459 60.232 81.5278 60.446 81.3673 60.6287C81.2068 60.8115 81.004 60.9563 80.7589 61.0633C80.5137 61.1703 80.2217 61.2238 79.883 61.2238C79.5442 61.2238 79.2188 61.1725 78.9068 61.07C78.5948 60.9675 78.3184 60.7959 78.0777 60.5552C77.837 60.3145 77.6454 59.9958 77.5027 59.5991C77.3805 59.259 77.3106 58.8453 77.2932 58.3579L77.2888 58.1081H72.7824C72.7824 59.2046 72.9518 60.1429 73.2905 60.9229C73.6293 61.7029 74.0795 62.3515 74.6411 62.8686C75.2027 63.3856 75.8468 63.7779 76.5734 64.0453C77.1788 64.2682 77.7982 64.426 78.4315 64.5189L78.8132 64.5668V67.268H80.9394V64.5802C81.7506 64.5 82.4883 64.3194 83.1525 64.0386C83.8166 63.7578 84.3849 63.3878 84.8574 62.9287C85.3299 62.4696 85.6954 61.9258 85.9539 61.2973C86.2124 60.6688 86.3417 59.9579 86.3417 59.1645C86.3417 58.2641 86.1902 57.493 85.8871 56.8511C85.584 56.2092 85.165 55.6476 84.6301 55.1662C84.0952 54.6848 83.46 54.2547 82.7246 53.8758C81.9891 53.4969 81.189 53.1247 80.3243 52.7592C79.8785 52.5631 79.5063 52.3692 79.2077 52.1775C78.909 51.9859 78.6706 51.7875 78.4923 51.5825C78.314 51.3774 78.1892 51.1546 78.1179 50.9139C78.0465 50.6732 78.0109 50.4013 78.0109 50.0982C78.0109 49.8129 78.0465 49.5432 78.1179 49.2892C78.1892 49.0351 78.2984 48.8145 78.4455 48.6272C78.5926 48.44 78.7842 48.2907 79.0205 48.1793C79.2567 48.0678 79.5398 48.0121 79.8696 48.0121C80.1638 48.0121 80.4357 48.0656 80.6853 48.1726C80.9349 48.2796 81.1533 48.4512 81.3405 48.6874C81.5278 48.9237 81.6726 49.2245 81.7751 49.59C81.8572 49.8824 81.9064 50.2205 81.9228 50.6042L81.9289 50.9005H86.4487C86.4487 50.0269 86.3239 49.2334 86.0743 48.5203C85.8247 47.8071 85.4703 47.1853 85.0112 46.6549C84.5521 46.1244 83.9994 45.6943 83.353 45.3645C82.7991 45.0817 82.1943 44.8776 81.5388 44.7521L81.2068 44.6958V41.8208Z" fill="#DDE4EF"/>
<mask id="mask0" mask-type="alpha" maskUnits="userSpaceOnUse" x="49" y="67" width="29" height="22">
<path d="M63.5 88.1529C71.0939 88.1529 77.25 83.5638 77.25 77.9029C77.25 72.2419 71.0939 67.6529 63.5 67.6529C55.9061 67.6529 49.75 72.2419 49.75 77.9029C49.75 83.5638 55.9061 88.1529 63.5 88.1529Z" fill="white"/>
</mask>
<g mask="url(#mask0)">
<mask id="mask1" mask-type="alpha" maskUnits="userSpaceOnUse" x="50" y="69" width="28" height="8">
<path d="M77.25 69.1529H50.7V76.1529H77.25V69.1529Z" fill="white"/>
</mask>
<g mask="url(#mask1)">
<path d="M63.5 85.1529C69.299 85.1529 74 81.9069 74 77.9029C74 73.8988 69.299 70.6529 63.5 70.6529C57.701 70.6529 53 73.8988 53 77.9029C53 81.9069 57.701 85.1529 63.5 85.1529Z" fill="#DDE4EF"/>
</g>
</g>
</svg>
