<svg width="125" height="125" viewBox="0 0 125 125" fill="none" xmlns="http://www.w3.org/2000/svg">
<mask id="mask0" mask-type="alpha" maskUnits="userSpaceOnUse" x="21" y="25" width="83" height="83">
<path d="M62.4183 107.183C84.8942 107.183 103.114 88.9622 103.114 66.4864C103.114 44.0105 84.8942 25.7902 62.4183 25.7902C39.9425 25.7902 21.7222 44.0105 21.7222 66.4864C21.7222 88.9622 39.9425 107.183 62.4183 107.183Z" fill="white"/>
</mask>
<g mask="url(#mask0)">
<path d="M62.4183 107.183C84.8942 107.183 103.114 88.9622 103.114 66.4864C103.114 44.0105 84.8942 25.7902 62.4183 25.7902C39.9425 25.7902 21.7222 44.0105 21.7222 66.4864C21.7222 88.9622 39.9425 107.183 62.4183 107.183Z" fill="#F5D47B"/>
<path d="M62.4956 88.4173C70.1879 88.4173 76.4237 85.6201 76.4237 82.1694C76.4237 78.7188 70.1879 75.9216 62.4956 75.9216C54.8033 75.9216 48.5675 78.7188 48.5675 82.1694C48.5675 85.6201 54.8033 88.4173 62.4956 88.4173Z" fill="#EA7884"/>
</g>
<path fill-rule="evenodd" clip-rule="evenodd" d="M52.4425 60.1963H41.5156C40.6522 60.1963 39.9536 60.8948 39.9536 61.7583C39.9536 62.6218 40.6521 63.3203 41.5156 63.3203H42.7056C43.3444 65.0648 45.0117 66.3109 46.9774 66.3109C48.943 66.3109 50.6138 65.0648 51.2491 63.3203H52.4391C53.3025 63.3203 54.0011 62.6218 54.0011 61.7583C54.0046 60.8948 53.3061 60.1963 52.4426 60.1963H52.4425Z" fill="#5B6271" stroke="#F5D47B"/>
<path fill-rule="evenodd" clip-rule="evenodd" d="M83.1454 60.1963H72.2186C71.3551 60.1963 70.6566 60.8948 70.6566 61.7583C70.6566 62.6218 71.3551 63.3203 72.2186 63.3203H73.4085C74.0474 65.0648 75.7146 66.3109 77.6803 66.3109C79.646 66.3109 81.3168 65.0648 81.9521 63.3203H83.142C84.0055 63.3203 84.704 62.6218 84.704 61.7583C84.7075 60.8948 84.009 60.1963 83.1455 60.1963H83.1454Z" fill="#5B6271" stroke="#F5D47B"/>
<path fill-rule="evenodd" clip-rule="evenodd" d="M80.58 73.7344H44.082C42.9378 73.7344 42.0392 74.7243 42.1585 75.8615C42.6394 80.4528 45.5809 90.885 62.3309 90.885C79.0809 90.885 82.0226 80.4569 82.5033 75.8615C82.6226 74.7208 81.7276 73.7344 80.5798 73.7344H80.58ZM62.3305 88.4173C57.3497 88.4173 53.5938 87.4907 50.7576 86.0725C51.751 84.6264 53.2533 83.2258 55.4857 82.7345C60.7404 81.5726 62.3304 83.1627 62.3304 83.1627C62.3304 83.1627 63.9205 81.5727 69.1752 82.7345C71.4076 83.2294 72.9135 84.6265 73.9033 86.0725C71.0671 87.4906 67.3113 88.4173 62.3304 88.4173H62.3305Z" fill="#5B6271" stroke="#5B6271"/>
<path d="M62.9449 17.076C66.0587 17.076 68.5829 14.5518 68.5829 11.438C68.5829 8.32421 66.0587 5.8 62.9449 5.8C59.8311 5.8 57.3069 8.32421 57.3069 11.438C57.3069 14.5518 59.8311 17.076 62.9449 17.076Z" fill="white" stroke="#F5D47B" stroke-width="4"/>
<path d="M88.7051 23.315L84.511 19.1209" stroke="#F5D47B" stroke-width="4" stroke-linecap="round"/>
<path d="M97.8394 23.315L102.033 19.1209" stroke="#F5D47B" stroke-width="4" stroke-linecap="round"/>
<path d="M88.7051 32.4493L84.511 36.6434" stroke="#F5D47B" stroke-width="4" stroke-linecap="round"/>
<path d="M97.8394 32.4493L102.033 36.6434" stroke="#F5D47B" stroke-width="4" stroke-linecap="round"/>
<path d="M24.9117 16.2136H18.9803" stroke="#F5D47B" stroke-width="4" stroke-linecap="round"/>
<path d="M29.8192 11.3198L29.8192 5.38849" stroke="#F5D47B" stroke-width="4" stroke-linecap="round"/>
<path d="M29.8192 21.4613L29.8192 27.3926" stroke="#F5D47B" stroke-width="4" stroke-linecap="round"/>
<path d="M35.0976 16.2136L41.0289 16.2136" stroke="#F5D47B" stroke-width="4" stroke-linecap="round"/>
<path d="M47.7138 42.142C51.845 42.142 55.1939 38.7931 55.1939 34.6619C55.1939 30.5308 51.845 27.1818 47.7138 27.1818C43.5827 27.1818 40.2337 30.5308 40.2337 34.6619C40.2337 38.7931 43.5827 42.142 47.7138 42.142Z" fill="white" stroke="#F5D47B" stroke-width="4"/>
</svg>
