<svg width="125" height="125" viewBox="0 0 125 125" fill="none" xmlns="http://www.w3.org/2000/svg">
<path fill-rule="evenodd" clip-rule="evenodd" d="M71.9759 20.39C64.3386 20.39 57.508 23.6578 52.8266 28.8153C48.1492 23.6613 41.3146 20.39 33.6772 20.39C19.5793 20.39 8.14777 31.4803 8.14777 45.161C8.14777 82.3122 52.8266 100.89 52.8266 100.89C52.8266 100.89 97.5054 82.3122 97.5054 45.161C97.5054 31.4803 86.0739 20.39 71.9759 20.39Z" fill="#EA7884"/>
<path fill-rule="evenodd" clip-rule="evenodd" d="M102.954 40.1C107.484 40.1 111.589 41.8776 114.559 44.7594C117.506 47.6196 119.335 51.5692 119.335 55.9351C119.335 79.1682 93.9617 91.7148 89.1728 93.8757C86.1559 92.4926 74.8229 86.8598 66.8983 76.9752C62.4001 71.3644 58.9979 64.358 58.9979 55.9351C58.9979 51.5692 60.8268 47.6196 63.7745 44.7594C66.7445 41.8776 70.8489 40.1 75.3791 40.1C80.2861 40.1 84.6796 42.198 87.6856 45.5103C88.2237 46.1032 88.7188 46.7367 89.1666 47.4047C89.6142 46.7366 90.1093 46.1034 90.6475 45.5104C93.6561 42.1959 98.0472 40.1 102.954 40.1Z" fill="#EA7884" stroke="white" stroke-width="4"/>
</svg>
