<?xml version="1.0" encoding="UTF-8"?>
<svg width="116px" height="84px" viewBox="0 0 116 84" version="1.1" xmlns="http://www.w3.org/2000/svg" xmlns:xlink="http://www.w3.org/1999/xlink">
    <title>Group 14</title>
    <g id="Page-1" stroke="none" stroke-width="1" fill="none" fill-rule="evenodd">
        <g id="Artboard" transform="translate(-409.000000, -465.000000)" fill="#DDE4EF">
            <g id="Group-14" transform="translate(409.253846, 465.800000)">
                <g id="Group-26" transform="translate(0.898080, 0.400000)">
                    <g id="Group-25" transform="translate(-0.004166, 0.790000)">
                        <path d="M63.8281601,0 C75.287567,0 84.9852309,7.32750876 88.2138228,17.4175599 C86.1640729,18.208878 84.3373389,19.373888 82.8522399,21.01 C79.4845579,17.2991096 74.351166,16.01 68.8522399,16.01 C58.7017128,16.01 48.8493361,25.6950384 48.8500826,35.5450939 C48.8512231,50.5928225 57.2356133,61.3187012 65.1394684,68.0868831 C54.6296402,76.3623728 44.6788185,80.5 44.6788185,80.5 C44.6788185,80.5 -6.22435437e-12,61.922208 -6.22435437e-12,24.7709638 C-6.22435437e-12,11.0903248 11.4315225,0 25.5294769,0 C33.1668741,0 40.0014823,3.2712687 44.6788185,8.42528322 C49.3602651,3.26780108 56.1908522,0 63.8281601,0 Z" id="Combined-Shape"></path>
                    </g>
                    <path d="M95.8994836,20.96 C90.7288839,20.96 86.1044491,23.1723622 82.9350225,26.6640737 C79.7683788,23.1747099 75.1412217,20.96 69.9705614,20.96 C60.4259836,20.96 52.6866299,28.4683565 52.6866299,37.7304041 C52.6866299,62.8824887 82.9350225,75.46 82.9350225,75.46 C82.9350225,75.46 113.183415,62.8824887 113.183415,37.7304041 C113.183415,28.4683565 105.444061,20.96 95.8994836,20.96 Z" id="Fill-1"></path>
                </g>
            </g>
        </g>
    </g>
</svg>