<?xml version="1.0" encoding="UTF-8"?>
<svg width="125px" height="125px" viewBox="0 0 125 125" version="1.1" xmlns="http://www.w3.org/2000/svg" xmlns:xlink="http://www.w3.org/1999/xlink">
    <title>Artboard</title>
    <g id="Artboard" stroke="none" stroke-width="1" fill="none" fill-rule="evenodd">
        <g id="Group-14" transform="translate(7.253846, 19.200000)" fill="#DDE4EF">
            <g id="Group-26" transform="translate(0.898080, 0.400000)">
                <g id="Group-25" transform="translate(-0.004166, 0.790000)">
                    <path d="M63.8281601,0 C56.1908522,0 49.3602651,3.26780108 44.6788185,8.42528322 C40.0014823,3.2712687 33.1668741,0 25.5294769,0 C11.4315225,0 -2.70422657e-12,11.0903248 -2.70422657e-12,24.7709638 C-2.70422657e-12,61.922208 44.6788185,80.5 44.6788185,80.5 C44.6788185,80.5 89.3576369,61.922208 89.3576369,24.7709638 C89.3576369,11.0903248 77.9261144,0 63.8281601,0 Z" id="Fill-1"></path>
                </g>
                <path d="M94.8021918,20.5 C99.3324248,20.5 103.436745,22.2776095 106.406805,25.1594254 C109.35453,28.0195696 111.183415,31.9692075 111.183415,36.3350939 C111.183415,59.5682093 85.8097134,72.1147907 81.0208701,74.2756914 C78.003918,72.8926223 66.6709803,67.2597641 58.7463938,57.3752241 C54.2481155,51.7644062 50.8459165,44.7580212 50.8459165,36.3350939 C50.8459165,31.9692075 52.6748019,28.0195696 55.6225267,25.1594254 C58.5925869,22.2776095 62.6969069,20.5 67.2271399,20.5 C72.1341014,20.5 76.5276943,22.5979994 79.5336232,25.9102697 C80.0717329,26.5032194 80.5668095,27.1366661 81.0146951,27.8046616 C81.4622176,27.1365929 81.9573494,26.5033721 82.4955708,25.9104214 C85.504175,22.5958856 89.8952057,20.5 94.8021918,20.5 Z" id="Fill-1" stroke="#FFFFFF" stroke-width="4"></path>
            </g>
        </g>
    </g>
</svg>