<?xml version="1.0" encoding="UTF-8"?>
<svg width="90px" height="108px" viewBox="0 0 90 108" version="1.1" xmlns="http://www.w3.org/2000/svg" xmlns:xlink="http://www.w3.org/1999/xlink">
    <title>Group 32</title>
    <defs>
        <path d="M40.6961489,-7.65965069e-12 C63.1720113,-7.65965069e-12 81.3922978,18.2202865 81.3922978,40.6961489 C81.3922978,63.1720113 63.1720113,81.3922978 40.6961489,81.3922978 C18.2202865,81.3922978 -5.7127636e-12,63.1720113 -5.7127636e-12,40.6961489 C-5.7127636e-12,18.2202865 18.2202865,-7.65965069e-12 40.6961489,-7.65965069e-12 Z M58.8575995,47.9441592 L22.3598331,47.9441592 C21.2155712,47.9441592 20.3169833,48.9340436 20.4363158,50.0712965 C20.9172041,54.6625417 23.8586778,65.0947882 40.6087163,65.0947882 C57.3587548,65.0947882 60.3003723,54.6666752 60.7811168,50.0712965 C60.9004583,48.9305392 60.0053838,47.9441592 58.8575995,47.9441592 Z M47.452991,56.9442362 C49.6854429,57.4391605 51.1912965,58.8362131 52.1810911,60.2823107 C49.3449679,61.7003723 45.5891399,62.627086 40.6081772,62.627086 C35.627484,62.627086 31.871656,61.7004621 29.0354429,60.2823107 C30.0288318,58.8361232 31.5310911,57.4355841 33.763543,56.9442362 C39.0182157,55.782362 40.608267,57.3724673 40.608267,57.3724673 L40.6166986,57.3644998 C40.7471335,57.2447405 42.4172631,55.8308251 47.452991,56.9442362 Z M30.7203851,34.4060334 L19.793466,34.4060334 C18.9299769,34.4060334 18.2314506,35.1045417 18.2314506,35.9680488 C18.2314506,36.8315558 18.9299589,37.5300642 19.793466,37.5300642 L20.9833761,37.5300642 C21.6222182,39.2745828 23.2895122,40.5206547 25.2551733,40.5206547 C27.2208344,40.5206547 28.8916688,39.2745828 29.5269705,37.5300642 L30.7168806,37.5300642 C31.5803697,37.5300642 32.2789091,36.8315558 32.2789091,35.9680488 C32.2824005,35.1045597 31.5838922,34.4060334 30.7203851,34.4060334 Z M61.4233376,34.4060334 L50.4964185,34.4060334 C49.6329294,34.4060334 48.9344031,35.1045417 48.9344031,35.9680488 C48.9344031,36.8315558 49.6329114,37.5300642 50.4964185,37.5300642 L51.6863286,37.5300642 C52.3251707,39.2745828 53.9924647,40.5206547 55.9581258,40.5206547 C57.9237869,40.5206547 59.5946213,39.2745828 60.229923,37.5300642 L61.4198331,37.5300642 C62.2833222,37.5300642 62.9818617,36.8315558 62.9818617,35.9680488 C62.985362,35.1045597 62.2868447,34.4060334 61.4233376,34.4060334 Z M25.991656,3.35661133 C22.9457615,3.35661133 20.4765761,5.82579672 20.4765761,8.87169126 C20.4765761,11.9175858 22.9457615,14.3867712 25.991656,14.3867712 C29.0375505,14.3867712 31.5067359,11.9175858 31.5067359,8.87169126 C31.5067359,5.82579672 29.0375505,3.35661133 25.991656,3.35661133 Z" id="path-1"></path>
    </defs>
    <g id="Page-1" stroke="none" stroke-width="1" fill="none" fill-rule="evenodd">
        <g id="Artboard" transform="translate(-1432.000000, -440.000000)">
            <g id="Group-32" transform="translate(1433.253846, 442.200000)">
                <g id="Group-30">
                    <g id="Group-5" transform="translate(4.820205, 21.611040)">
                        <g id="Oval" transform="translate(0.112323, 0.379204)">
                            <ellipse fill="#5B6271" cx="39.9682673" cy="47.8097562" rx="31.8712706" ry="22"></ellipse>
                            <mask id="mask-2" fill="white">
                                <use xlink:href="#path-1"></use>
                            </mask>
                            <use id="Combined-Shape" fill="#F5D47B" xlink:href="#path-1"></use>
                            <ellipse fill="#EA7884" mask="url(#mask-2)" cx="40.7734275" cy="56.3792041" rx="13.928113" ry="6.2478819"></ellipse>
                        </g>
                        <g id="Group-28" transform="translate(18.343774, 34.785237)"></g>
                    </g>
                    <circle id="Oval" stroke="#F5D47B" stroke-width="4" cx="46.1552498" cy="7.63799743" r="5.63799743"></circle>
                    <g id="Group-29" transform="translate(67.272066, 14.871630)" stroke="#F5D47B" stroke-linecap="round" stroke-width="4">
                        <line x1="4.64337485" y1="4.64337485" x2="0.449293967" y2="0.449293967" id="Line-5"></line>
                        <line x1="17.6728999" y1="4.64337485" x2="13.478819" y2="0.449293967" id="Line-5" transform="translate(15.725289, 2.695764) scale(-1, 1) translate(-15.725289, -2.695764) "></line>
                        <line x1="4.64337485" y1="17.6728999" x2="0.449293967" y2="13.478819" id="Line-5" transform="translate(2.695764, 15.725289) scale(1, -1) translate(-2.695764, -15.725289) "></line>
                        <line x1="17.6728999" y1="17.6728999" x2="13.478819" y2="13.478819" id="Line-5" transform="translate(15.725289, 15.725289) scale(-1, -1) translate(-15.725289, -15.725289) "></line>
                    </g>
                    <g id="Group-29" transform="translate(13.013640, 12.426108) rotate(-45.000000) translate(-13.013640, -12.426108) translate(4.513640, 3.426108)" stroke="#F5D47B" stroke-linecap="round" stroke-width="4">
                        <line x1="5.04991849" y1="5.53229381" x2="0.855837616" y2="1.33821293" id="Line-5"></line>
                        <line x1="15.875724" y1="5.54196278" x2="11.6816431" y2="1.3478819" id="Line-5" transform="translate(13.928113, 3.594352) scale(-1, 1) translate(-13.928113, -3.594352) "></line>
                        <line x1="4.80940285" y1="16.6082839" x2="0.615321976" y2="12.4142031" id="Line-5" transform="translate(2.861792, 14.660673) scale(1, -1) translate(-2.861792, -14.660673) "></line>
                        <line x1="16.1476638" y1="16.6300391" x2="11.9535829" y2="12.4359582" id="Line-5" transform="translate(14.200053, 14.682428) scale(-1, -1) translate(-14.200053, -14.682428) "></line>
                    </g>
                </g>
                <circle id="Oval" stroke="#F5D47B" stroke-width="4" cx="30.9241844" cy="30.861935" r="7.48010274"></circle>
            </g>
        </g>
    </g>
</svg>