<svg width="38" height="33" viewBox="0 0 38 33" fill="none" xmlns="http://www.w3.org/2000/svg">
<path d="M4 16.375L2.87695 14.8735L0.869582 16.375L2.87695 17.8765L4 16.375ZM13.2879 9.4279H15.1629V5.68398L12.1648 7.92644L13.2879 9.4279ZM13.2879 23.3221L12.1648 24.8236L15.1629 27.066V23.3221H13.2879ZM21.8081 0.125C20.7726 0.125 19.9331 0.964466 19.9331 2C19.9331 3.03553 20.7726 3.875 21.8081 3.875V0.125ZM35.5581 2H37.4331V0.125H35.5581V2ZM35.5581 30.75V32.625H37.4331V30.75H35.5581ZM21.8081 28.875C20.7726 28.875 19.9331 29.7145 19.9331 30.75C19.9331 31.7855 20.7726 32.625 21.8081 32.625V28.875ZM5.12305 17.8765L14.4109 10.9294L12.1648 7.92644L2.87695 14.8735L5.12305 17.8765ZM11.4129 9.4279V23.3221H15.1629V9.4279H11.4129ZM14.4109 21.8206L5.12305 14.8735L2.87695 17.8765L12.1648 24.8236L14.4109 21.8206ZM21.8081 3.875H35.5581V0.125H21.8081V3.875ZM33.6831 2V30.75H37.4331V2H33.6831ZM35.5581 28.875H21.8081V32.625H35.5581V28.875ZM28.6831 14.5H11.1831V18.25H28.6831V14.5Z" fill="#5F6674"/>
</svg>
