<svg width="104" height="98" viewBox="-6 -4 116 102" fill="none" xmlns="http://www.w3.org/2000/svg">
<path fill-rule="evenodd" clip-rule="evenodd" d="M81.6499 97.524C82.8823 97.4231 84.0138 96.8014 84.7534 95.8267C85.4928 94.8464 85.7729 93.6027 85.5208 92.4096L79.2468 62.2385L102.276 41.4677C103.537 40.3361 104.007 38.5828 103.481 36.9863C102.954 35.3953 101.537 34.2469 99.845 34.0621L68.8508 30.6338L55.9779 2.5909C55.2777 1.06721 53.7372 0.0924835 52.0399 0.0924835C50.3425 0.0924835 48.8021 1.0672 48.1018 2.5909L35.2289 30.6281L4.23462 34.0563V34.0619C2.54287 34.2468 1.12559 35.3952 0.599002 36.9917C0.0724315 38.5882 0.542997 40.3359 1.79779 41.4675L24.8273 62.2384L18.5533 92.4095C18.2172 94.0507 18.8838 95.7369 20.2562 96.7228C21.6287 97.7031 23.4549 97.8095 24.9337 96.9805L52.0402 81.7609L79.1467 96.9805C79.9085 97.4118 80.7824 97.6023 81.6507 97.5294L81.6499 97.524Z" fill="#F5D47B"/>
</svg>
