<svg width="100" height="95" viewBox="0 0 100 95" fill="none" xmlns="http://www.w3.org/2000/svg">
<path fill-rule="evenodd" clip-rule="evenodd" d="M78.6623 94.3128C79.8553 94.2152 80.9505 93.6133 81.6664 92.6698C82.3822 91.7208 82.6533 90.517 82.4093 89.3621L76.3361 60.1568L98.6284 40.0508C99.8485 38.9555 100.304 37.2582 99.7943 35.7128C99.2846 34.1728 97.9126 33.0612 96.275 32.8822L66.2729 29.5637L53.8121 2.41844C53.1343 0.943526 51.6431 0 50.0001 0C48.357 0 46.8659 0.943512 46.188 2.41844L33.7272 29.5582L3.72508 32.8767V32.8821C2.08748 33.061 0.715576 34.1726 0.205846 35.7181C-0.303869 37.2635 0.151615 38.9553 1.36625 40.0506L23.6586 60.1566L17.5854 89.3619C17.2601 90.9507 17.9053 92.5829 19.2338 93.5372C20.5623 94.4861 22.3301 94.5892 23.7616 93.7866L50.0004 79.0542L76.2392 93.7866C76.9767 94.2042 77.8226 94.3885 78.6631 94.318L78.6623 94.3128Z" fill="#F1E7CD"/>
</svg>
