<svg width="10" height="10" viewBox="0 0 10 10" fill="none" xmlns="http://www.w3.org/2000/svg">
<path d="M3.86276 9.66535C3.57276 9.66535 3.29809 9.53001 3.12209 9.29668L0.740091 6.14935C0.666446 6.05215 0.612681 5.94139 0.581869 5.8234C0.551057 5.70541 0.543802 5.5825 0.560519 5.46171C0.577236 5.34091 0.617597 5.2246 0.679295 5.11941C0.740992 5.01422 0.822817 4.92223 0.920091 4.84868C1.01733 4.77483 1.12819 4.7209 1.24631 4.68997C1.36443 4.65904 1.4875 4.65173 1.60845 4.66845C1.7294 4.68517 1.84587 4.7256 1.95117 4.78741C2.05647 4.84923 2.14854 4.93122 2.22209 5.02868L3.78942 7.09802L7.73009 0.770015C7.86078 0.561081 8.069 0.412513 8.30909 0.356897C8.54917 0.301282 8.80151 0.343161 9.01076 0.473348C9.44609 0.744015 9.58009 1.31735 9.30809 1.75335L4.65209 9.22668C4.57261 9.35483 4.46306 9.46164 4.33294 9.53785C4.20282 9.61407 4.05607 9.65737 3.90542 9.66402C3.89076 9.66535 3.87742 9.66535 3.86276 9.66535Z" fill="white"/>
</svg>
