<svg width="36" height="36" viewBox="0 0 36 36"  xmlns="http://www.w3.org/2000/svg">
<circle cx="18" cy="18" r="18" />
<path d="M16.2939 24.9977C15.8589 24.9977 15.4469 24.7947 15.1829 24.4447L11.6099 19.7237C11.4994 19.5779 11.4188 19.4118 11.3726 19.2348C11.3263 19.0578 11.3155 18.8735 11.3405 18.6923C11.3656 18.5111 11.4262 18.3366 11.5187 18.1788C11.6112 18.021 11.734 17.883 11.8799 17.7727C12.0258 17.6619 12.192 17.581 12.3692 17.5346C12.5464 17.4883 12.731 17.4773 12.9124 17.5024C13.0939 17.5275 13.2686 17.5881 13.4265 17.6808C13.5845 17.7735 13.7226 17.8965 13.8329 18.0427L16.1839 21.1467L22.0949 11.6547C22.2909 11.3413 22.6033 11.1185 22.9634 11.035C23.3235 10.9516 23.702 11.0144 24.0159 11.2097C24.6689 11.6157 24.8699 12.4757 24.4619 13.1297L17.4779 24.3397C17.3587 24.5319 17.1943 24.6922 16.9992 24.8065C16.804 24.9208 16.5839 24.9858 16.3579 24.9957C16.3359 24.9977 16.3159 24.9977 16.2939 24.9977Z" />
</svg>