<svg width="21" height="23" viewBox="0 0 21 23" fill="none" xmlns="http://www.w3.org/2000/svg">
<path d="M18.5324 12.6213C18.5729 12.2619 18.5999 11.8881 18.5999 11.5C18.5999 11.1119 18.5729 10.7381 18.5189 10.3788L20.8003 8.48127C20.8982 8.39396 20.965 8.27355 20.9896 8.14013C21.0141 8.00671 20.995 7.86835 20.9353 7.74815L18.7754 3.76628C18.6404 3.50753 18.3569 3.42128 18.1139 3.50753L15.4274 4.65753C14.8696 4.19899 14.2566 3.8219 13.6049 3.53628L13.2 0.488786C13.1804 0.351676 13.115 0.226699 13.0158 0.136884C12.9166 0.0470699 12.7902 -0.00153089 12.66 3.67738e-05H8.34004C8.21128 -0.00135457 8.08653 0.0476533 7.98947 0.137754C7.89241 0.227854 7.82981 0.352773 7.81355 0.488786L7.40855 3.53628C6.75796 3.82427 6.14532 4.20118 5.58608 4.65753L2.89963 3.50753C2.77865 3.45787 2.64485 3.45674 2.52315 3.50434C2.40145 3.55195 2.30015 3.64504 2.23814 3.76628L0.0781731 7.74815C0.0113725 7.86644 -0.011803 8.00693 0.0131392 8.14238C0.0380815 8.27783 0.109365 8.3986 0.213171 8.48127L2.49463 10.3788C2.44063 10.7381 2.40013 11.1263 2.40013 11.5C2.40013 11.8738 2.42713 12.2619 2.48113 12.6213L0.199671 14.5188C0.101793 14.6061 0.0349957 14.7265 0.0104276 14.8599C-0.0141406 14.9933 0.0050065 15.1317 0.0646733 15.2519L2.22464 19.2338C2.35964 19.4925 2.64313 19.5788 2.88613 19.4925L5.57258 18.3425C6.13044 18.8011 6.74336 19.1781 7.39505 19.4638L7.80005 22.5112C7.85404 22.7987 8.07004 23 8.34004 23H12.66C12.93 23 13.1595 22.7987 13.1865 22.5112L13.5914 19.4638C14.242 19.1758 14.8547 18.7989 15.4139 18.3425L18.1004 19.4925C18.3434 19.5931 18.6269 19.4925 18.7619 19.2338L20.9218 15.2519C20.9886 15.1336 21.0118 14.9931 20.9869 14.8577C20.9619 14.7222 20.8906 14.6014 20.7868 14.5188L18.5324 12.6213ZM10.5 15.8125C8.27254 15.8125 6.45007 13.8719 6.45007 11.5C6.45007 9.12815 8.27254 7.18752 10.5 7.18752C12.7275 7.18752 14.5499 9.12815 14.5499 11.5C14.5499 13.8719 12.7275 15.8125 10.5 15.8125Z" fill="#999999"/>
</svg>
