<svg width="39" height="19" viewBox="0 0 39 19" fill="none" xmlns="http://www.w3.org/2000/svg">
<path fill-rule="evenodd" clip-rule="evenodd" d="M1.20255 10.8886H28.8616V4.23447V2.4197C28.8616 1.75247 28.3223 1.20985 27.6591 1.20985H2.40509C1.74189 1.20985 1.20255 1.75247 1.20255 2.4197V10.8886ZM1.20255 15.1231H2.48145C2.5025 15.0408 2.53497 14.9634 2.56443 14.8842C2.57826 14.8461 2.58848 14.8055 2.60471 14.768C2.66244 14.6343 2.73038 14.5073 2.81035 14.3875C2.82779 14.3609 2.85003 14.3385 2.86867 14.3125C2.93421 14.2212 3.00396 14.1335 3.08152 14.0524C3.117 14.0161 3.15548 13.984 3.19276 13.9496C3.2619 13.886 3.33225 13.8255 3.40861 13.7705C3.45311 13.7378 3.4982 13.7082 3.5451 13.6785C3.62267 13.6302 3.70324 13.5866 3.78621 13.5473C3.83612 13.5237 3.88482 13.5001 3.93592 13.4795C4.02792 13.4432 4.12292 13.4154 4.22033 13.3906C4.26723 13.3785 4.31172 13.3634 4.35922 13.3543C4.50593 13.3259 4.65565 13.3083 4.81017 13.3083C4.9647 13.3083 5.11442 13.3259 5.26113 13.3543C5.30863 13.3634 5.35312 13.3785 5.40002 13.3906C5.49743 13.4154 5.59243 13.4432 5.68442 13.4795C5.73553 13.5001 5.78423 13.5237 5.83414 13.5473C5.91711 13.5866 5.99768 13.6302 6.07525 13.6785C6.12215 13.7082 6.16724 13.7378 6.21173 13.7705C6.2881 13.8255 6.35844 13.886 6.42759 13.9496C6.46487 13.984 6.50335 14.0161 6.53883 14.0524C6.61639 14.1335 6.68614 14.2212 6.75168 14.3125C6.77032 14.3385 6.79256 14.3609 6.81 14.3875C6.88997 14.5073 6.95791 14.6343 7.01563 14.768C7.03187 14.8055 7.04209 14.8461 7.05592 14.8842C7.08538 14.9634 7.11785 15.0408 7.1389 15.1231H8.21036H8.21096C8.30716 14.7481 8.49055 14.4111 8.73828 14.1298C8.7515 14.1147 8.76233 14.099 8.77616 14.0845C8.83809 14.0167 8.90663 13.9568 8.97578 13.8975C9.01726 13.8612 9.05875 13.8249 9.10325 13.7911C9.16458 13.7457 9.22831 13.7033 9.29325 13.6634C9.35638 13.6247 9.42072 13.5902 9.48686 13.5582C9.54638 13.5291 9.60471 13.5007 9.66604 13.4765C9.75142 13.4432 9.8404 13.4178 9.9306 13.3942C9.9811 13.3809 10.0298 13.364 10.0821 13.3543C10.2276 13.3259 10.3767 13.3083 10.5307 13.3083C10.6846 13.3083 10.8337 13.3259 10.9792 13.3543C11.0315 13.364 11.0802 13.3809 11.1307 13.3942C11.2209 13.4178 11.3099 13.4432 11.3947 13.4765C11.4566 13.5007 11.5149 13.5291 11.5739 13.5582C11.64 13.5902 11.7049 13.6247 11.7675 13.6634C11.833 13.7033 11.8962 13.7457 11.9581 13.7911C12.002 13.8249 12.0435 13.8612 12.0855 13.8975C12.1547 13.9568 12.2226 14.0167 12.2852 14.0845C12.2984 14.099 12.3098 14.1147 12.3225 14.1298C12.5702 14.4111 12.7536 14.7481 12.8504 15.1231H28.8616V12.0985H1.20255V15.1231ZM4.81017 16.9379C5.47338 16.9379 6.01271 16.3953 6.01271 15.728C6.01271 15.0608 5.47338 14.5182 4.81017 14.5182C4.14697 14.5182 3.60763 15.0608 3.60763 15.728C3.60763 16.3953 4.14697 16.9379 4.81017 16.9379ZM9.37021 16.0299C9.37382 16.0432 9.37923 16.0565 9.38284 16.0704C9.4111 16.1624 9.44777 16.2513 9.49528 16.333C9.70392 16.6929 10.0875 16.9379 10.5307 16.9379C10.9738 16.9379 11.3574 16.6929 11.5655 16.333C11.613 16.2513 11.6496 16.1624 11.6779 16.0704C11.6821 16.0565 11.6869 16.0432 11.6905 16.0299C11.7164 15.9331 11.7332 15.8327 11.7332 15.728C11.7332 15.6234 11.7164 15.523 11.6905 15.4268C11.6869 15.4129 11.6821 15.3996 11.6779 15.3856C11.6496 15.2937 11.613 15.2048 11.5655 15.1231C11.4638 14.9477 11.3201 14.8019 11.1488 14.696C11.1361 14.6882 11.1223 14.6815 11.1091 14.6743C11.0399 14.6349 10.9666 14.6047 10.8908 14.5799C10.868 14.5726 10.8457 14.5642 10.8217 14.5581C10.7285 14.5345 10.6317 14.5182 10.5307 14.5182C10.4297 14.5182 10.3328 14.5345 10.239 14.5581C10.2156 14.5642 10.1927 14.5726 10.1699 14.5799C10.0941 14.6047 10.0208 14.6349 9.95224 14.6743C9.93841 14.6815 9.92518 14.6882 9.91196 14.696C9.7412 14.8019 9.59689 14.9477 9.49528 15.1231C9.44777 15.2048 9.4111 15.2937 9.38284 15.3856C9.37923 15.3996 9.37382 15.4129 9.37021 15.4268C9.34436 15.523 9.32812 15.6234 9.32812 15.728C9.32812 15.8327 9.34436 15.9331 9.37021 16.0299ZM30.0641 10.8886V12.0985V15.1231H31.343C31.3641 15.0408 31.3972 14.9634 31.4266 14.8842C31.4405 14.8461 31.4507 14.8055 31.4663 14.768C31.524 14.6343 31.5926 14.5073 31.6719 14.3875C31.6894 14.3609 31.7116 14.3385 31.7303 14.3125C31.7964 14.2212 31.8662 14.1335 31.9431 14.0524C31.9786 14.0161 32.0171 13.984 32.055 13.9496C32.1235 13.886 32.1944 13.8255 32.2702 13.7705C32.3147 13.7378 32.3604 13.7082 32.4073 13.6785C32.4849 13.6302 32.5648 13.5866 32.6484 13.5473C32.6977 13.5237 32.7464 13.5001 32.7975 13.4795C32.8895 13.4432 32.9851 13.4154 33.0825 13.3906C33.1288 13.3785 33.1739 13.3634 33.2214 13.3543C33.3675 13.3259 33.5178 13.3083 33.6718 13.3083C33.8263 13.3083 33.9766 13.3259 34.1227 13.3543C34.1708 13.3634 34.2153 13.3785 34.2616 13.3906C34.359 13.4154 34.4546 13.4432 34.5466 13.4795C34.5977 13.5001 34.6464 13.5237 34.6957 13.5473C34.7787 13.5866 34.8593 13.6302 34.9368 13.6785C34.9837 13.7082 35.0294 13.7378 35.0739 13.7705C35.1497 13.8255 35.2206 13.886 35.2892 13.9496C35.3271 13.984 35.3655 14.0161 35.4004 14.0524C35.478 14.1335 35.5477 14.2212 35.6133 14.3125C35.6325 14.3385 35.6548 14.3609 35.6722 14.3875C35.7516 14.5073 35.8201 14.6343 35.8772 14.768C35.8941 14.8055 35.9037 14.8461 35.9181 14.8842C35.9476 14.9634 35.9794 15.0408 36.0011 15.1231H37.2794V8.11445L34.6254 5.44432H30.0641V10.8886ZM33.6718 16.9379C34.335 16.9379 34.8743 16.3953 34.8743 15.728C34.8743 15.0608 34.335 14.5182 33.6718 14.5182C33.0092 14.5182 32.4692 15.0608 32.4692 15.728C32.4692 16.3953 33.0092 16.9379 33.6718 16.9379ZM2.40509 0H27.6591C28.9861 0 30.0641 1.08523 30.0641 2.4197V4.23447H35.1238L38.4819 7.61358V16.333H35.9915C35.7233 17.374 34.7895 18.1477 33.6718 18.1477C32.5546 18.1477 31.6214 17.374 31.3527 16.333H30.0641H28.8616H12.8504C12.5816 17.374 11.6478 18.1477 10.5307 18.1477C9.4129 18.1477 8.47973 17.374 8.21036 16.333H7.12988C6.86111 17.374 5.92734 18.1477 4.81017 18.1477C3.69301 18.1477 2.75924 17.374 2.49047 16.333H7.62939e-06V12.0985V10.8886V2.4197C7.62939e-06 1.08523 1.07869 0 2.40509 0Z" fill="#2A2A2A"/>
</svg>
