<svg width="256" height="256" viewBox="0 0 256 256" fill="none" xmlns="http://www.w3.org/2000/svg">
<path d="M256 0H0V256H256V0Z" fill="#DDE4EF"/>
<path fill-rule="evenodd" clip-rule="evenodd" d="M224.001 261.056C224.001 264.337 221.329 267.056 218.048 267.056H37.952C34.7176 267.056 31.9989 264.36 31.9989 261.056C31.9989 208.04 74.9835 165.056 127.999 165.056C181.014 165.056 223.999 208.04 223.999 261.056H224.001ZM128.001 153.056C98.1883 153.056 74.0011 128.868 74.0011 99.0556C74.0011 69.2428 98.1883 45.0556 128.001 45.0556C157.814 45.0556 182.001 69.2428 182.001 99.0556C182.001 128.868 157.814 153.056 128.001 153.056Z" fill="#BFC7D7"/>
</svg>
