<svg width="393" height="505" viewBox="0 0 393 505" fill="none" xmlns="http://www.w3.org/2000/svg">
<path fill-rule="evenodd" clip-rule="evenodd" d="M199.013 0.435547C239.085 0.486324 271.369 3.0409 271.369 6.18478C271.369 6.24316 271.357 6.30135 271.335 6.35932L271.294 6.44611L271.279 7.85288C270.817 71.0875 280.156 128.115 299.296 178.935C303.524 190.16 305.357 201.128 305.256 211.633C305.258 211.879 305.259 212.124 305.259 212.37C305.259 250.999 281.002 284.447 245.654 300.673C246.304 312.889 250.193 324.343 257.321 335.035C270.412 354.672 276.755 368.846 276.352 377.557C276.363 377.683 276.369 377.809 276.369 377.935C276.369 387.876 241.335 395.935 198.119 395.935C197.494 395.935 196.871 395.933 196.25 395.93L196.5 395.931L195.817 395.934L194.881 395.935C151.665 395.935 116.631 387.876 116.631 377.935C116.631 377.809 116.637 377.683 116.648 377.557C116.244 368.846 122.588 354.672 135.679 335.035C142.807 324.343 146.696 312.889 147.346 300.673C111.998 284.447 87.7406 250.999 87.7406 212.37C87.7406 212.124 87.7416 211.879 87.7436 211.633C87.6433 201.128 89.4757 190.16 93.7035 178.935C112.844 128.115 122.183 71.0875 121.721 7.85288L121.706 6.44611C121.656 6.35948 121.631 6.27236 121.631 6.18478C121.631 3.0409 153.915 0.486324 193.987 0.435547L199.013 0.435547ZM198.59 11.9H194.409C161.075 11.947 134.22 14.311 134.22 17.2204C134.22 17.2427 134.227 17.2648 134.241 17.2867L134.267 17.3195L134.278 17.049L134.233 18.8404C132.659 77.4038 123.915 130.19 108 177.2C93.5768 219.803 103 253 136 278C153.204 291.033 178.611 296.707 194.445 296.992L195 297H198C213.831 296.762 239.709 291.099 257 278C290 253 299.423 219.803 285 177.2C269.254 130.69 260.528 78.5262 258.82 20.7074L258.767 18.8404L258.722 17.049L258.733 17.3195L258.759 17.2867C258.773 17.2648 258.78 17.2427 258.78 17.2204C258.78 14.311 231.924 11.947 198.59 11.9ZM277.944 203.371C278.158 205.508 278.287 207.612 278.331 209.684C278.816 232.617 268.877 251.575 248.597 266.939C233.707 278.219 211.422 283.095 197.79 283.294L197.792 283.3H195.208C181.611 283.161 159.392 278.294 144.403 266.939C124.241 251.665 114.3 232.837 114.662 210.084C114.697 207.883 114.828 205.646 115.056 203.371L277.944 203.371Z" fill="#F5D47B"/>
<path d="M17.3861 503.725C23.5858 503.725 28.1444 500.869 30.211 497.161C30.6972 496.31 31.0011 495.459 31.0011 494.487C31.0011 492.116 29.1777 490.475 26.9288 490.475C25.4092 490.475 24.1936 491.083 22.978 492.785C21.4584 494.851 19.9997 495.824 17.3861 495.824C14.0431 495.824 12.0981 494.061 11.1863 491.265L11.1537 491.162L11.0911 490.954L11.0322 490.743C10.661 489.357 10.5177 487.617 10.5177 482.391C10.5177 477.165 10.661 475.425 11.0322 474.039L11.0911 473.828L11.1537 473.62C11.1644 473.586 11.1753 473.551 11.1863 473.517C12.0981 470.721 14.0431 468.958 17.3861 468.958C19.9997 468.958 21.4584 469.931 22.978 471.997C24.1936 473.699 25.4092 474.307 26.9288 474.307C29.1777 474.307 31.0011 472.666 31.0011 470.296C31.0011 469.323 30.6972 468.472 30.211 467.621C28.1444 463.913 23.5858 461.057 17.3861 461.057C10.1531 461.057 4.80429 464.46 2.61615 471.207C1.78648 473.874 1.47684 475.963 1.46188 481.925L1.4613 482.391C1.4613 488.712 1.76521 490.84 2.61615 493.575C4.80429 500.322 10.1531 503.725 17.3861 503.725ZM60.0068 503.725C67.2398 503.725 72.8925 500.382 75.0806 493.696C75.9677 490.858 76.2218 488.594 76.2349 482.876L76.2355 482.391C76.2355 476.313 75.9923 474.003 75.0806 471.086C72.8925 464.4 67.2398 461.057 60.0068 461.057C52.7738 461.057 47.1211 464.4 44.933 471.086C44.0213 474.003 43.7781 476.313 43.7781 482.391C43.7781 488.469 44.0213 490.779 44.933 493.696C47.1211 500.382 52.7738 503.725 60.0068 503.725ZM60.0068 495.824C56.603 495.824 54.4149 494.122 53.5032 491.326C53.0301 489.847 52.8447 487.851 52.835 482.818L52.8346 482.391C52.8346 477.042 53.0169 474.976 53.5032 473.456C54.4149 470.66 56.603 468.958 60.0068 468.958C63.4106 468.958 65.5987 470.66 66.5104 473.456C66.9967 474.976 67.179 477.042 67.179 482.391C67.179 487.74 66.9967 489.806 66.5104 491.326C65.5987 494.122 63.4106 495.824 60.0068 495.824ZM117.094 503.421C119.768 503.421 121.348 501.476 121.348 499.167C121.348 498.316 121.166 497.465 120.74 496.675L114.723 485.734C118.978 483.607 121.531 479.595 121.531 474.55C121.531 467.013 115.939 461.725 107.429 461.725H94.3005C91.8692 461.725 90.4104 463.306 90.4104 465.676V498.68C90.4104 501.537 92.2947 503.421 94.9083 503.421C97.5219 503.421 99.3453 501.537 99.3453 498.68V487.679C99.3453 487.436 99.4669 487.314 99.71 487.314H105.788L112.717 500.625C113.751 502.57 115.27 503.421 117.094 503.421ZM107.004 479.717H99.71C99.4669 479.717 99.3453 479.595 99.3453 479.352V469.809C99.3453 469.566 99.4669 469.445 99.71 469.445H107.004C110.408 469.445 112.596 471.45 112.596 474.611C112.596 477.711 110.408 479.717 107.004 479.717ZM163.057 503.421C165.549 503.421 167.312 501.476 167.312 499.167C167.312 498.316 167.069 497.404 166.522 496.432L156.067 478.379L164.941 468.168C165.61 467.378 165.975 466.405 165.975 465.311C165.975 463.002 164.151 461.361 161.963 461.361C160.626 461.361 159.35 462.09 158.316 463.306L144.64 479.96V466.102C144.64 463.245 142.756 461.361 140.203 461.361C137.59 461.361 135.706 463.245 135.706 466.102V498.68C135.706 501.537 137.59 503.421 140.203 503.421C142.756 503.421 144.64 501.537 144.64 498.68V492.055L150.111 485.187L158.803 500.808C159.775 502.51 161.295 503.421 163.057 503.421ZM208.048 503.421C210.662 503.421 212.546 501.598 212.546 498.68V466.102C212.546 463.184 210.662 461.361 208.048 461.361C205.496 461.361 203.611 463.184 203.611 466.102V477.832C203.611 478.076 203.49 478.197 203.247 478.197H189.753C189.51 478.197 189.389 478.076 189.389 477.832V466.102C189.389 463.184 187.504 461.361 184.951 461.361C182.338 461.361 180.454 463.184 180.454 466.102V498.68C180.454 501.598 182.277 503.421 184.891 503.421C187.444 503.421 189.389 501.598 189.389 498.68V486.524C189.389 486.281 189.51 486.159 189.753 486.159H203.247C203.49 486.159 203.611 486.281 203.611 486.524V498.68C203.611 501.598 205.496 503.421 208.048 503.421ZM251.763 503.057C254.255 503.057 255.896 501.416 255.896 499.167C255.896 496.979 254.255 495.337 251.763 495.337H237.115C236.872 495.337 236.75 495.216 236.75 494.973V486.403C236.75 486.159 236.872 486.038 237.115 486.038H248.846C251.338 486.038 252.918 484.458 252.918 482.209C252.918 479.96 251.338 478.379 248.846 478.379H237.115C236.872 478.379 236.75 478.258 236.75 478.015V469.809C236.75 469.566 236.872 469.445 237.115 469.445H251.763C254.255 469.445 255.896 467.803 255.896 465.615C255.896 463.366 254.255 461.725 251.763 461.725H231.705C229.274 461.725 227.815 463.306 227.815 465.676V499.106C227.815 501.476 229.274 503.057 231.705 503.057H251.763ZM298.396 503.421C300.644 503.421 302.711 501.78 302.711 499.228C302.711 498.62 302.59 498.012 302.407 497.526L291.406 466.588C290.251 463.306 288.367 461.361 285.206 461.361C282.045 461.361 280.222 463.306 279.067 466.588L267.883 497.526C267.701 498.012 267.579 498.62 267.579 499.228C267.579 501.78 269.646 503.421 271.895 503.421C273.84 503.421 275.42 502.267 276.089 500.261L277.73 495.216H292.5L294.202 500.261C294.87 502.267 296.451 503.421 298.396 503.421ZM290.008 487.618H280.283L285.084 473.152H285.267L290.008 487.618ZM329.711 503.057C338.524 503.057 343.995 500.261 346.183 493.514C346.973 491.144 347.398 488.287 347.398 482.391C347.398 476.495 346.973 473.638 346.183 471.268C343.995 464.521 338.524 461.725 329.711 461.725H319.925C317.494 461.725 316.035 463.306 316.035 465.676V499.167C316.035 501.537 317.494 503.057 319.925 503.057H329.711ZM329.468 495.094H325.335C325.092 495.094 324.97 494.973 324.97 494.73V470.052C324.97 469.809 325.092 469.688 325.335 469.688H329.468C333.601 469.688 336.579 471.086 337.613 474.368C338.038 475.766 338.342 478.197 338.342 482.391C338.342 486.585 338.038 489.016 337.613 490.414C336.579 493.696 333.601 495.094 329.468 495.094ZM375.31 503.725C386.068 503.725 391.539 498.194 391.539 490.718C391.539 483.242 387.102 479.413 378.531 478.197L376.343 477.893C371.542 477.225 369.9 475.644 369.9 473.335C369.9 470.721 371.845 468.898 375.492 468.898C378.045 468.898 380.598 469.627 382.604 470.599C383.455 471.025 384.366 471.268 385.217 471.268C387.406 471.268 389.107 469.627 389.107 467.378C389.107 465.919 388.439 464.704 386.98 463.792C384.549 462.272 379.99 461.057 375.432 461.057C366.497 461.057 360.783 466.102 360.783 473.699C360.783 480.993 365.403 484.944 373.851 486.099L376.039 486.403C380.963 487.071 382.421 488.591 382.421 491.022C382.421 493.879 380.051 495.885 375.675 495.885C372.636 495.885 370.204 495.094 366.801 493.21C366.071 492.785 365.159 492.481 364.187 492.481C361.877 492.481 360.175 494.243 360.175 496.432C360.175 497.89 360.905 499.288 362.303 500.2C365.038 501.902 369.475 503.725 375.31 503.725Z" fill="#F5D47B" stroke="#F5D47B" stroke-width="2.10499"/>
</svg>
