<svg width="358" height="407" viewBox="0 0 358 407" fill="none" xmlns="http://www.w3.org/2000/svg">
<path d="M16.0566 405.54C21.6927 405.54 25.8369 402.943 27.7156 399.573C28.1577 398.799 28.434 398.025 28.434 397.141C28.434 394.986 26.7763 393.494 24.7318 393.494C23.3504 393.494 22.2453 394.047 21.1402 395.594C19.7588 397.473 18.4326 398.357 16.0566 398.357C13.0176 398.357 11.2494 396.755 10.4205 394.213L10.3908 394.119L10.3339 393.93L10.2804 393.738C9.94296 392.478 9.81272 390.896 9.81272 386.145C9.81272 381.395 9.94296 379.813 10.2804 378.553L10.3339 378.361L10.3908 378.172C10.4006 378.141 10.4105 378.109 10.4205 378.078C11.2494 375.536 13.0176 373.934 16.0566 373.934C18.4326 373.934 19.7588 374.818 21.1402 376.697C22.2453 378.244 23.3504 378.796 24.7318 378.796C26.7763 378.796 28.434 377.304 28.434 375.149C28.434 374.265 28.1577 373.492 27.7156 372.718C25.8369 369.348 21.6927 366.751 16.0566 366.751C9.48119 366.751 4.61867 369.845 2.62945 375.978C1.87521 378.403 1.59371 380.302 1.58011 385.721L1.57959 386.145C1.57959 391.892 1.85587 393.826 2.62945 396.312C4.61867 402.446 9.48119 405.54 16.0566 405.54ZM54.8028 405.54C61.3782 405.54 66.517 402.501 68.5062 396.423C69.3127 393.842 69.5437 391.785 69.5556 386.586L69.5561 386.145C69.5561 380.62 69.3351 378.52 68.5062 375.868C66.517 369.79 61.3782 366.751 54.8028 366.751C48.2273 366.751 43.0885 369.79 41.0993 375.868C40.2705 378.52 40.0494 380.62 40.0494 386.145C40.0494 391.671 40.2705 393.771 41.0993 396.423C43.0885 402.501 48.2273 405.54 54.8028 405.54ZM54.8028 398.357C51.7084 398.357 49.7192 396.81 48.8904 394.268C48.4603 392.924 48.2917 391.109 48.2829 386.533L48.2826 386.145C48.2826 381.283 48.4483 379.404 48.8904 378.023C49.7192 375.481 51.7084 373.934 54.8028 373.934C57.8971 373.934 59.8863 375.481 60.7151 378.023C61.1572 379.404 61.323 381.283 61.323 386.145C61.323 391.008 61.1572 392.887 60.7151 394.268C59.8863 396.81 57.8971 398.357 54.8028 398.357ZM106.7 405.264C109.131 405.264 110.568 403.496 110.568 401.396C110.568 400.622 110.402 399.849 110.015 399.131L104.545 389.184C108.413 387.25 110.733 383.604 110.733 379.017C110.733 372.166 105.65 367.358 97.9141 367.358H85.9788C83.7686 367.358 82.4424 368.795 82.4424 370.95V400.954C82.4424 403.551 84.1554 405.264 86.5314 405.264C88.9074 405.264 90.5651 403.551 90.5651 400.954V390.953C90.5651 390.732 90.6756 390.621 90.8966 390.621H96.4222L102.721 402.722C103.661 404.49 105.042 405.264 106.7 405.264ZM97.5273 383.714H90.8966C90.6756 383.714 90.5651 383.604 90.5651 383.383V374.707C90.5651 374.486 90.6756 374.376 90.8966 374.376H97.5273C100.622 374.376 102.611 376.199 102.611 379.073C102.611 381.891 100.622 383.714 97.5273 383.714ZM148.485 405.264C150.75 405.264 152.353 403.496 152.353 401.396C152.353 400.622 152.132 399.794 151.635 398.909L142.131 382.498L150.198 373.215C150.806 372.497 151.137 371.613 151.137 370.618C151.137 368.519 149.48 367.027 147.49 367.027C146.275 367.027 145.114 367.69 144.175 368.795L131.742 383.935V371.337C131.742 368.74 130.03 367.027 127.709 367.027C125.333 367.027 123.62 368.74 123.62 371.337V400.954C123.62 403.551 125.333 405.264 127.709 405.264C130.03 405.264 131.742 403.551 131.742 400.954V394.931L136.715 388.687L144.617 402.888C145.501 404.435 146.883 405.264 148.485 405.264ZM189.386 405.264C191.762 405.264 193.475 403.606 193.475 400.954V371.337C193.475 368.685 191.762 367.027 189.386 367.027C187.065 367.027 185.352 368.685 185.352 371.337V382.001C185.352 382.222 185.242 382.333 185.021 382.333H172.754C172.533 382.333 172.423 382.222 172.423 382.001V371.337C172.423 368.685 170.71 367.027 168.389 367.027C166.013 367.027 164.3 368.685 164.3 371.337V400.954C164.3 403.606 165.958 405.264 168.334 405.264C170.654 405.264 172.423 403.606 172.423 400.954V389.903C172.423 389.682 172.533 389.571 172.754 389.571H185.021C185.242 389.571 185.352 389.682 185.352 389.903V400.954C185.352 403.606 187.065 405.264 189.386 405.264ZM229.127 404.932C231.392 404.932 232.884 403.44 232.884 401.396C232.884 399.407 231.392 397.915 229.127 397.915H215.81C215.589 397.915 215.479 397.804 215.479 397.583V389.792C215.479 389.571 215.589 389.461 215.81 389.461H226.475C228.74 389.461 230.177 388.024 230.177 385.98C230.177 383.935 228.74 382.498 226.475 382.498H215.81C215.589 382.498 215.479 382.388 215.479 382.167V374.707C215.479 374.486 215.589 374.376 215.81 374.376H229.127C231.392 374.376 232.884 372.884 232.884 370.895C232.884 368.85 231.392 367.358 229.127 367.358H210.892C208.682 367.358 207.356 368.795 207.356 370.95V401.341C207.356 403.496 208.682 404.932 210.892 404.932H229.127ZM271.52 405.264C273.564 405.264 275.443 403.772 275.443 401.451C275.443 400.899 275.332 400.346 275.167 399.904L265.165 371.779C264.116 368.795 262.403 367.027 259.529 367.027C256.656 367.027 254.998 368.795 253.948 371.779L243.781 399.904C243.616 400.346 243.505 400.899 243.505 401.451C243.505 403.772 245.384 405.264 247.428 405.264C249.196 405.264 250.633 404.214 251.241 402.391L252.733 397.804H266.16L267.707 402.391C268.315 404.214 269.752 405.264 271.52 405.264ZM263.895 390.897H255.054L259.419 377.746H259.585L263.895 390.897ZM299.988 404.932C308 404.932 312.973 402.391 314.963 396.257C315.681 394.102 316.068 391.505 316.068 386.145C316.068 380.786 315.681 378.189 314.963 376.034C312.973 369.9 308 367.358 299.988 367.358H291.092C288.882 367.358 287.556 368.795 287.556 370.95V401.396C287.556 403.551 288.882 404.932 291.092 404.932H299.988ZM299.767 397.694H296.01C295.789 397.694 295.678 397.583 295.678 397.362V374.928C295.678 374.707 295.789 374.597 296.01 374.597H299.767C303.525 374.597 306.232 375.868 307.172 378.852C307.558 380.122 307.835 382.333 307.835 386.145C307.835 389.958 307.558 392.168 307.172 393.439C306.232 396.423 303.525 397.694 299.767 397.694ZM341.442 405.54C351.222 405.54 356.195 400.512 356.195 393.715C356.195 386.919 352.162 383.438 344.371 382.333L342.381 382.056C338.016 381.449 336.524 380.012 336.524 377.912C336.524 375.536 338.292 373.879 341.608 373.879C343.929 373.879 346.249 374.542 348.073 375.426C348.846 375.813 349.675 376.034 350.449 376.034C352.438 376.034 353.985 374.542 353.985 372.497C353.985 371.171 353.377 370.066 352.051 369.237C349.841 367.856 345.697 366.751 341.553 366.751C333.43 366.751 328.236 371.337 328.236 378.244C328.236 384.874 332.435 388.466 340.116 389.516L342.105 389.792C346.581 390.4 347.907 391.781 347.907 393.992C347.907 396.589 345.752 398.412 341.774 398.412C339.011 398.412 336.801 397.694 333.706 395.981C333.043 395.594 332.214 395.318 331.33 395.318C329.23 395.318 327.683 396.92 327.683 398.909C327.683 400.236 328.346 401.507 329.617 402.335C332.104 403.883 336.137 405.54 341.442 405.54Z" fill="#F5D47B" stroke="#F5D47B" stroke-width="1.91363"/>
<path d="M181.145 6.16205C96.2453 7.20447 53.7956 13.0536 53.7956 23.7094V185.111C55.4172 242.675 60.5134 276.38 69.0844 286.225C81.8124 300.845 101.862 309.676 178.796 309.851L180.962 309.854H181.145L183.311 309.851C260.244 309.676 280.294 300.845 293.022 286.225C301.593 276.38 306.689 242.675 308.311 185.111V23.7094C308.311 13.1602 266.706 7.32193 183.496 6.19476L181.144 6.16405L181.145 6.16205ZM181.145 6.16205L180.962 6.16405L180.962 6.16205L181.053 6.16305L181.145 6.16205Z" stroke="#F5D47B" stroke-width="11.1375"/>
<path fill-rule="evenodd" clip-rule="evenodd" d="M119.169 309.854L72.5286 286.225L60.9996 265.724L59.1043 189.558C59.971 207.073 61.8343 218.945 64.6941 225.174C70.8801 238.649 83.3555 246.642 94.0144 250.609C121.069 260.678 136.089 265.717 180.9 265.724C225.713 265.717 240.733 260.678 267.788 250.609C278.035 246.796 289.878 237.776 295.973 225.174C299.066 218.778 301.279 206.906 302.611 189.558L300.803 265.724L289.274 286.225L242.634 309.854H119.169Z" fill="#F5D47B"/>
<path fill-rule="evenodd" clip-rule="evenodd" d="M280.422 122.544C283.922 122.864 290.713 126.797 290.722 133.226L290.722 133.422L290.723 134.272L290.723 138.353L290.722 139.681C290.722 139.796 290.722 139.912 290.722 140.029L290.722 140.743C290.721 140.864 290.721 140.986 290.721 141.11L290.72 141.862C290.711 150.783 290.684 164.847 290.637 184.054C290.873 204.993 287.106 220.036 279.337 229.182C268.271 242.21 234.754 253.284 185.137 254.367L185.137 254.454C183.786 254.454 182.447 254.447 181.119 254.432C179.793 254.447 178.453 254.454 177.103 254.454L177.102 254.367C127.486 253.284 93.9693 242.21 82.903 229.182C75.1339 220.036 71.3671 204.993 71.6025 184.054C71.5573 165.155 71.5298 151.203 71.5202 142.199L71.5194 141.418C71.5193 141.289 71.5192 141.162 71.5191 141.036L71.5173 138.884L71.5172 133.814L71.5185 132.775C71.5286 126.646 77.6507 122.933 80.791 122.639C86.2086 122.133 92.9189 121.694 100.922 121.322C99.4225 126.502 99.4701 132.136 101.286 137.495C101.918 139.361 102.629 141.297 103.417 143.305L103.955 144.654C104.046 144.88 104.139 145.108 104.232 145.336L104.804 146.716C105.193 147.644 105.598 148.585 106.018 149.541L106.659 150.985C106.768 151.228 106.878 151.471 106.989 151.715L107.665 153.191C107.78 153.439 107.895 153.688 108.012 153.937L108.723 155.445C108.843 155.699 108.965 155.953 109.087 156.208L109.833 157.748C109.959 158.006 110.087 158.266 110.215 158.526L110.995 160.099C111.127 160.363 111.26 160.628 111.394 160.893L112.21 162.498C112.348 162.768 112.487 163.038 112.626 163.309L113.477 164.946C113.62 165.221 113.765 165.497 113.911 165.773L114.796 167.444L115.704 169.135L116.635 170.849L117.59 172.585L118.568 174.342L119.569 176.122L120.594 177.924L122.116 180.567L123.525 182.981L124.453 184.551L125.371 186.091L126.281 187.599C126.431 187.848 126.582 188.096 126.732 188.342L128.071 190.524L128.953 191.941C129.099 192.175 129.245 192.407 129.391 192.638L130.259 194.008L131.118 195.348L131.969 196.658L132.81 197.937L133.643 199.186L134.467 200.404L135.283 201.592L136.09 202.75L136.888 203.877L137.679 204.974C137.941 205.335 138.201 205.691 138.46 206.041L139.234 207.078L139.999 208.085L140.756 209.063L141.504 210.01L142.245 210.927C142.368 211.077 142.49 211.226 142.612 211.374L143.341 212.247L144.062 213.089L144.775 213.902L145.48 214.685C145.597 214.814 145.713 214.94 145.829 215.066C153.103 222.927 164.335 225.747 174.46 222.253L174.9 222.099C175.2 221.994 175.504 221.885 175.811 221.773L176.745 221.426L177.702 221.059L178.681 220.673L179.683 220.267L180.708 219.841L181.756 219.395L182.288 219.165L183.37 218.689L184.476 218.194L185.604 217.678L186.756 217.143L187.931 216.587L189.129 216.012L190.351 215.416L191.596 214.801L192.864 214.165L194.157 213.51L195.473 212.834L197.491 211.783L198.867 211.057L200.975 209.93L202.411 209.154L203.87 208.358L206.105 207.125L207.625 206.278L209.951 204.97L212.332 203.616L214.768 202.216L217.217 200.795L219.598 199.399L221.148 198.483L222.668 197.577L224.157 196.683L225.617 195.8L227.75 194.496L229.135 193.64L231.155 192.376L233.109 191.137L234.375 190.324L235.61 189.522L236.816 188.731L237.992 187.95L239.139 187.18L240.804 186.044L241.877 185.3L242.921 184.566L243.935 183.843L244.92 183.13L245.875 182.427L246.802 181.734C247.106 181.505 247.405 181.278 247.699 181.052L248.567 180.379C248.709 180.268 248.85 180.157 248.99 180.047L249.815 179.389L250.61 178.742L251.376 178.104L252.114 177.477C260.167 170.541 263.402 159.526 260.38 149.337L260.215 148.786C259.062 145 257.525 140.876 255.602 136.403L255.014 135.051L254.402 133.678C254.298 133.447 254.194 133.216 254.088 132.983L253.442 131.578L252.772 130.152L252.08 128.704L251.364 127.236L250.625 125.745L249.863 124.233L249.078 122.7C248.945 122.443 248.812 122.184 248.677 121.925L248.081 120.788C261.664 121.229 272.444 121.814 280.422 122.544Z" fill="#F5D47B"/>
<path fill-rule="evenodd" clip-rule="evenodd" d="M117.842 117.025C125.651 111.058 137.27 103.62 152.7 94.7117C168.357 85.6723 180.755 79.2653 189.895 75.4907V75.4907C195.681 73.1011 202.344 74.5955 206.556 79.2272C213.529 86.8969 221.492 98.4848 230.445 113.991C239.738 130.087 245.834 143.021 248.732 152.792V152.792C250.394 158.396 248.614 164.455 244.185 168.271C237.301 174.199 225.471 182.007 208.693 191.694C191.78 201.458 179.048 207.816 170.496 210.767L170.496 210.767C164.927 212.689 158.748 211.138 154.747 206.814C148.632 200.205 141.104 189.158 132.164 173.672C122.819 157.486 116.362 144.127 112.793 133.595C110.748 127.561 112.78 120.894 117.842 117.025Z" fill="#F5D47B"/>
</svg>
