<svg width="257" height="256" viewBox="0 0 257 256" fill="none" xmlns="http://www.w3.org/2000/svg">
<path fill-rule="evenodd" clip-rule="evenodd" d="M0.655853 0H256.656V256H0.655853V0Z" fill="#EEF2F8"/>
<path fill-rule="evenodd" clip-rule="evenodd" d="M128.276 212.075L127.107 212.074C85.5931 211.979 74.774 207.214 67.9059 199.325C63.2809 194.012 60.5309 175.825 59.6559 144.762V57.6687C59.6559 51.9187 82.5621 48.7625 128.375 48.2L128.276 48.201L128.276 48.2L128.325 48.201L128.375 48.2L128.374 48.201L129.644 48.2177C174.545 48.8259 196.995 51.9762 196.995 57.6687V144.762C196.12 175.825 193.37 194.012 188.745 199.325C181.877 207.214 171.058 211.979 129.544 212.074L128.375 212.075H128.276Z" stroke="#BFC7D7" stroke-width="6.5625"/>
<path fill-rule="evenodd" clip-rule="evenodd" d="M95.1941 212.075L70.1629 199.325L63.9754 188.262L62.9582 147.162C63.4233 156.614 64.4233 163.02 65.9582 166.381C69.2782 173.652 75.9736 177.966 81.6941 180.106C96.0691 185.485 104.114 188.204 127.61 188.262H129.041C152.537 188.204 160.582 185.485 174.957 180.106C180.456 178.048 186.812 173.181 190.083 166.381C191.744 162.929 192.931 156.523 193.646 147.162L192.675 188.262L186.488 199.325L161.457 212.075H95.1941Z" fill="#BFC7D7"/>
<path fill-rule="evenodd" clip-rule="evenodd" d="M130.364 111.537L130.365 111.551C154.639 111.649 171.503 112.121 180.956 112.967C182.815 113.134 186.42 115.176 186.425 118.515L186.425 118.839C186.426 118.896 186.426 118.954 186.426 119.013L186.426 121.178C186.426 121.263 186.426 121.349 186.426 121.437L186.425 122.55C186.425 122.648 186.424 122.748 186.424 122.848L186.424 123.467C186.418 128.118 186.404 135.266 186.38 144.912C186.505 155.787 184.505 163.6 180.38 168.35C174.504 175.116 156.708 180.868 130.364 181.43L130.364 181.475C129.648 181.475 128.937 181.471 128.231 181.464C127.527 181.471 126.816 181.475 126.099 181.475L126.099 181.43C99.7549 180.868 81.9589 175.116 76.0832 168.35C71.9582 163.6 69.9582 155.787 70.0832 144.912C70.0604 135.586 70.0461 128.579 70.0403 123.893L70.0396 123.239C70.0395 123.132 70.0394 123.027 70.0393 122.924L70.0387 122.317C70.0386 122.219 70.0385 122.122 70.0384 122.026L70.0384 118.438L70.0386 118.281C70.044 115.098 73.2945 113.169 74.9619 113.017C84.4848 112.146 101.53 111.658 126.099 111.552L126.099 111.537C126.862 111.539 127.619 111.541 128.369 111.544C129.028 111.541 129.693 111.539 130.364 111.537Z" fill="#BFC7D7"/>
</svg>
