<svg width="256" height="256" viewBox="0 0 256 256" fill="none" xmlns="http://www.w3.org/2000/svg">
<path fill-rule="evenodd" clip-rule="evenodd" d="M0 0H256V256H0V0Z" fill="#EEF2F8"/>
<path fill-rule="evenodd" clip-rule="evenodd" d="M133.713 33C153.056 33.0244 168.64 34.2516 168.64 35.762C168.64 35.79 168.635 35.818 168.624 35.8458L168.604 35.8875L168.597 36.5633C168.374 66.9416 172.882 94.3379 182.121 118.752C184.162 124.145 185.047 129.414 184.998 134.46C184.999 134.579 185 134.696 185 134.814C185 153.372 173.29 169.441 156.227 177.236C156.541 183.104 158.418 188.607 161.859 193.743C168.178 203.177 171.24 209.986 171.046 214.171C171.051 214.232 171.054 214.292 171.054 214.353C171.054 219.128 154.143 223 133.282 223C132.98 223 132.679 222.999 132.379 222.998L132.5 222.998L132.17 223L131.719 223C110.858 223 93.9464 219.128 93.9464 214.353C93.9464 214.292 93.9491 214.232 93.9545 214.171C93.7597 209.986 96.8216 203.177 103.141 193.743C106.582 188.607 108.459 183.104 108.773 177.236C91.71 169.441 80.0005 153.372 80.0005 134.814C80.0005 134.696 80.0009 134.579 80.0019 134.46C79.9535 129.414 80.838 124.145 82.8788 118.752C92.118 94.3379 96.626 66.9416 96.403 36.5633L96.396 35.8875C96.3721 35.8459 96.3599 35.804 96.3599 35.762C96.3599 34.2516 111.944 33.0244 131.287 33H133.713ZM133.509 38.5076H131.491C115.4 38.5302 102.437 39.6658 102.437 41.0635C102.437 41.0742 102.44 41.0849 102.447 41.0954L102.459 41.1111L102.465 40.9812L102.443 41.8418C101.683 69.976 97.4624 95.3347 89.7799 117.919C82.8177 138.385 87.3664 154.333 103.296 166.343C111.601 172.605 123.865 175.33 131.508 175.467L131.776 175.471H133.224C140.866 175.357 153.358 172.636 161.704 166.343C177.634 154.333 182.182 138.385 175.22 117.919C167.619 95.5749 163.407 70.5152 162.583 42.7387L162.557 41.8418L162.535 40.9812L162.541 41.1111L162.553 41.0954C162.56 41.0849 162.563 41.0742 162.563 41.0635C162.563 39.6658 149.6 38.5302 133.509 38.5076ZM171.814 130.491C171.918 131.518 171.98 132.529 172.001 133.524C172.235 144.541 167.437 153.649 157.648 161.03C150.46 166.449 139.703 168.791 133.123 168.887L133.124 168.89H131.876C125.313 168.823 114.588 166.485 107.352 161.03C97.6198 153.692 92.8209 144.647 92.9956 133.716C93.0125 132.659 93.0759 131.584 93.1859 130.491H171.814Z" fill="#BFC7D7"/>
</svg>
