<svg width="61" height="61" viewBox="0 0 61 61" fill="none" xmlns="http://www.w3.org/2000/svg">
<path fill-rule="evenodd" clip-rule="evenodd" d="M2.26035 0.355737C1.654 0.378718 1.08834 0.675681 0.727718 1.16359C0.365322 1.65326 0.245136 2.27903 0.402433 2.86769L6.68514 26.4143L34.5431 30.641L6.67924 34.8837L0.401947 58.4076L0.400178 58.4059C0.195122 59.1695 0.458528 59.9809 1.07015 60.4794C1.68535 60.9779 2.53208 61.0681 3.23564 60.711L59.8096 32.4213L59.8114 32.423C60.4849 32.0818 60.9092 31.3924 60.9091 30.6358C60.9091 29.8828 60.4849 29.1934 59.8114 28.8522L3.23738 0.562477C2.93509 0.412217 2.59976 0.3416 2.26035 0.355737Z" fill="white"/>
</svg>
